<?xml version="1.0" standalone="no"?>
<!DOCTYPE svg PUBLIC "-//W3C//DTD SVG 20010904//EN"
 "http://www.w3.org/TR/2001/REC-SVG-20010904/DTD/svg10.dtd">
<svg version="1.0" xmlns="http://www.w3.org/2000/svg"
 width="2000.000000pt" height="1339.000000pt" viewBox="0 0 2000.000000 1339.000000"
 preserveAspectRatio="xMidYMid meet">
<metadata>
Created by potrace 1.16, written by Peter Selinger 2001-2019
</metadata>
<g transform="translate(0.000000,1339.000000) scale(0.100000,-0.100000)"
fill="#000000" stroke="none">
<path d="M0 6695 l0 -6695 10000 0 10000 0 0 6695 0 6695 -10000 0 -10000 0 0
-6695z m15417 5823 c-2 -7 -116 -355 -251 -773 -136 -418 -276 -848 -311 -955
-35 -107 -91 -280 -125 -385 -71 -218 -311 -956 -405 -1245 -35 -107 -120
-368 -189 -580 -68 -212 -215 -664 -326 -1005 -111 -341 -221 -677 -243 -748
-22 -70 -45 -126 -51 -124 -6 2 -305 380 -666 840 -360 460 -662 843 -671 852
-14 14 -35 -26 -230 -435 -118 -247 -217 -450 -220 -450 -3 0 -43 300 -89 666
l-83 666 1164 1165 c1155 1156 1163 1164 1044 1081 -113 -80 -514 -363 -2234
-1578 -393 -278 -720 -504 -725 -502 -32 10 -1696 887 -1696 894 0 5 12 13 28
19 25 10 450 186 2422 1006 443 184 924 385 1070 445 362 150 1283 533 1925
800 292 121 602 251 690 288 174 74 179 76 172 58z m-9913 -3834 c107 -26 184
-71 271 -159 92 -92 136 -166 165 -281 54 -209 -5 -420 -159 -575 -124 -125
-257 -180 -431 -180 -176 0 -300 51 -425 176 -92 91 -136 165 -165 281 -52
203 3 411 149 566 156 166 369 227 595 172z m1644 -151 l-3 -178 -300 -5
c-330 -6 -328 -5 -394 -72 -46 -46 -62 -82 -68 -149 -8 -79 11 -140 59 -194
71 -81 65 -79 403 -85 l300 -5 3 -177 2 -178 -274 0 c-304 0 -368 8 -482 60
-235 106 -376 313 -376 550 0 274 198 515 484 590 63 16 111 19 361 19 l287 1
-2 -177z m2192 -3 l0 -179 -313 -3 -314 -3 -48 -30 c-27 -16 -50 -36 -53 -42
-3 -10 74 -13 362 -13 l366 0 0 -160 0 -160 -367 0 -366 0 24 -26 c55 -60 75
-64 407 -64 l302 0 0 -180 0 -180 -272 0 c-319 0 -370 8 -503 74 -108 54 -188
123 -249 214 -115 174 -132 384 -45 567 79 167 238 294 431 345 63 16 110 19
356 19 l282 1 0 -180z m-4895 121 c219 -108 297 -364 183 -599 -36 -73 -127
-164 -184 -182 l-36 -12 181 -182 c99 -100 181 -185 181 -189 0 -4 -118 -7
-263 -7 l-262 0 -180 180 -180 180 -5 -177 -5 -178 -167 -3 -168 -2 0 605 0
606 418 -3 417 -3 70 -34z m3155 -119 l5 -152 155 155 155 155 232 0 c128 0
233 -3 233 -8 0 -4 -126 -133 -280 -287 -154 -154 -280 -284 -280 -290 0 -6
128 -138 285 -295 157 -157 285 -288 285 -292 0 -5 -105 -8 -232 -8 l-233 0
-162 162 -163 163 0 -163 0 -162 -165 0 -165 0 0 583 c0 321 3 587 7 591 4 3
77 5 162 4 l156 -3 5 -153z m3010 -2 l0 -160 -215 0 -215 0 0 -430 0 -430
-160 0 -160 0 0 430 0 430 -215 0 -215 0 0 160 0 160 590 0 590 0 0 -160z
m5634 111 c232 -48 445 -135 630 -258 135 -89 329 -283 415 -413 155 -235 251
-509 284 -805 l13 -110 227 -3 227 -2 0 -470 0 -470 -1550 0 -1550 0 0 -790 0
-790 1034 2 1034 3 43 30 c105 75 108 213 6 289 -28 21 -37 21 -649 24 -583 2
-620 3 -613 20 3 9 92 216 197 460 l191 443 496 -3 496 -3 85 -29 c195 -65
355 -160 481 -286 204 -204 309 -458 325 -790 5 -95 2 -131 -15 -207 -54 -237
-167 -440 -331 -596 -129 -122 -268 -197 -461 -249 l-84 -22 -1577 -3 -1578
-3 0 1720 0 1720 1320 0 c726 0 1320 4 1320 8 0 24 -42 167 -65 223 -69 164
-206 310 -359 384 -126 60 -206 78 -346 77 -141 -1 -238 -23 -365 -86 -112
-56 -189 -116 -262 -206 l-56 -69 -27 22 c-15 12 -170 148 -344 301 -197 174
-315 285 -312 293 17 44 102 151 185 233 182 181 407 306 688 381 185 49 272
58 523 54 178 -3 246 -8 324 -24z m-10244 -3311 l0 -1720 -395 0 -395 0 -26
53 c-90 179 -275 349 -467 428 -187 78 -401 94 -592 45 -255 -66 -483 -243
-598 -463 -24 -48 -37 -63 -54 -63 -39 0 -285 67 -382 104 -618 237 -1014 737
-1092 1379 -14 121 -7 399 14 512 69 367 222 672 464 925 240 251 538 417 896
499 78 18 142 19 1355 20 l1272 1 0 -1720z m2180 1714 c0 -3 -23 -27 -52 -52
-136 -123 -326 -363 -432 -545 -380 -654 -389 -1481 -26 -2207 67 -134 157
-273 223 -347 l47 -51 -328 -279 c-180 -153 -335 -284 -345 -292 -23 -18 -40
-3 -154 139 -347 430 -550 907 -630 1480 -24 176 -24 592 0 785 62 490 222
973 426 1283 l61 92 605 0 c333 0 605 -3 605 -6z m3975 -27 c422 -94 766 -295
1013 -591 439 -528 525 -1222 225 -1835 -97 -198 -283 -443 -442 -580 l-57
-50 -236 257 c-305 333 -388 426 -388 433 0 3 20 20 46 38 146 105 262 284
301 463 21 101 21 254 -1 353 -76 337 -328 559 -678 599 l-58 6 0 -1250 0
-1250 -1272 0 c-1435 0 -1313 -6 -1571 80 -458 152 -818 462 -1011 871 -295
621 -181 1397 281 1924 235 267 554 453 928 541 l100 23 1350 -2 1350 -3 120
-27z m-7607 -3058 c143 -36 300 -137 395 -254 63 -78 131 -220 153 -319 23
-107 15 -293 -16 -386 -82 -240 -252 -415 -485 -497 -75 -26 -91 -28 -240 -28
-148 0 -166 2 -240 27 -120 41 -199 92 -300 193 -77 76 -98 105 -137 185 -66
133 -81 200 -81 345 0 225 78 405 241 556 195 180 449 244 710 178z m12717
-594 c63 -17 225 -103 225 -120 0 -5 -11 -23 -24 -40 l-24 -29 -83 41 c-128
64 -204 77 -294 52 -55 -15 -115 -77 -115 -118 l0 -31 340 0 340 0 0 -45 0
-45 -112 0 -111 0 64 -32 c78 -40 109 -81 109 -147 0 -28 -8 -59 -20 -79 -24
-39 -89 -71 -142 -72 -31 0 -39 4 -44 24 -12 49 -2 70 38 77 101 16 85 98 -24
123 l-28 6 -2 -197 -3 -198 -41 -3 c-37 -3 -43 0 -66 35 -53 80 -127 151 -175
167 -26 9 -55 16 -64 16 -22 0 -52 88 -37 107 5 7 62 42 126 79 64 37 126 73
137 81 17 11 -3 13 -133 13 l-152 0 -2 -247 -3 -248 -52 -3 -53 -3 0 250 0
251 -35 0 c-35 0 -35 0 -35 45 0 45 0 45 35 45 31 0 35 3 35 28 0 34 34 110
63 140 74 79 227 112 362 77z m-2881 -89 c41 -31 61 -65 71 -119 l7 -37 349 0
349 0 0 -45 c0 -41 -2 -45 -25 -45 l-25 0 -2 -247 -3 -248 -50 0 -50 0 -5 117
c-4 95 -8 120 -24 137 -11 12 -27 21 -36 21 -21 0 -57 -38 -62 -65 -3 -17 -12
-20 -61 -23 -51 -3 -57 -1 -57 17 0 23 -46 81 -65 81 -7 0 -24 -9 -39 -21 -21
-16 -26 -29 -26 -64 0 -55 24 -75 93 -75 35 0 48 -4 44 -12 -2 -7 -10 -30 -18
-51 -8 -24 -21 -40 -35 -43 -38 -10 -106 16 -145 55 -107 106 -50 292 94 308
59 7 88 -1 127 -33 l31 -27 22 20 c46 42 97 54 138 33 18 -10 19 -7 19 55 l0
65 -480 0 -480 0 -2 -247 -3 -248 -50 0 -50 0 -3 248 -2 247 -45 0 -45 0 0
-250 0 -250 -40 0 c-34 0 -46 6 -72 36 -65 74 -201 148 -320 174 -54 12 -59
16 -68 49 -5 20 -10 44 -10 53 0 21 93 70 265 139 l120 48 -222 1 -223 0 -2
-247 -3 -248 -50 0 -50 0 -3 248 -2 247 -45 0 -45 0 0 -250 0 -250 -50 0 -50
0 0 34 c0 52 -15 82 -66 132 -85 82 -175 108 -222 64 -53 -50 5 -100 83 -70
23 9 27 7 35 -16 25 -65 24 -70 -19 -88 -82 -32 -167 -8 -211 60 -27 39 -27
119 0 158 24 37 86 76 122 76 40 0 42 15 7 54 -30 34 -34 36 -95 36 -62 0 -64
1 -64 25 0 64 -108 -15 -162 -118 -56 -106 -2 -278 77 -246 42 16 47 12 69
-57 15 -47 -100 -60 -170 -19 -64 37 -94 105 -94 211 0 121 32 193 138 307
l45 47 953 0 c524 0 955 3 958 8 10 17 -24 72 -48 78 -38 9 -116 -4 -154 -27
-44 -25 -56 -24 -70 6 -18 40 -15 53 20 71 118 61 219 68 282 20z m-7486 -213
l-3 -58 -207 -3 -208 -2 0 -60 0 -60 143 0 c148 0 167 5 167 42 0 15 9 18 55
18 l55 0 0 -150 c0 -171 -9 -208 -62 -240 -30 -18 -50 -20 -255 -20 l-223 0 0
235 0 235 -40 0 -40 0 0 -235 0 -235 -65 0 -65 0 0 235 0 235 -175 0 -175 0 0
-70 0 -70 69 0 c73 0 84 6 95 53 6 25 10 27 56 27 l50 0 0 -166 0 -166 -39
-39 -39 -39 -244 0 c-241 0 -245 0 -266 23 -36 38 -42 73 -42 233 l0 154 60 0
60 0 0 -143 c0 -98 4 -147 12 -155 8 -8 63 -12 180 -12 166 0 169 0 193 25 21
20 25 34 25 79 l0 56 -39 -21 c-33 -17 -54 -19 -137 -17 l-99 3 -3 122 -3 122
-122 3 -122 3 -3 58 -3 57 731 0 731 0 -3 -57z m1217 -238 l0 -290 -57 -3 -58
-3 0 236 0 235 -40 0 -40 0 0 -235 0 -235 -205 0 c-234 0 -252 4 -285 70 -17
34 -20 59 -20 190 l0 150 200 0 200 0 0 30 0 30 -197 2 -198 3 -3 58 -3 57
353 -2 353 -3 0 -290z m1315 0 l0 -295 -60 0 -60 0 0 235 0 235 -35 0 -35 0 0
-235 0 -235 -55 0 -55 0 0 144 c0 165 -2 169 -77 164 -48 -3 -48 -3 -53 -43
l-5 -40 -60 0 -60 0 -3 43 -3 42 -65 0 -64 0 0 -83 c0 -113 7 -121 107 -127
l78 -5 3 -47 3 -48 -111 0 c-61 0 -120 5 -131 10 -41 23 -49 60 -49 235 l0
165 130 0 c119 0 130 -2 140 -20 6 -12 21 -20 35 -20 14 0 30 9 37 20 11 17
24 20 85 20 l73 0 0 30 0 30 -247 2 -248 3 -3 58 -3 57 396 0 395 0 0 -295z
m1330 0 l0 -296 -57 3 -58 3 -3 233 -2 232 -80 0 c-77 0 -81 -1 -90 -26 -15
-38 -13 -41 29 -48 50 -8 87 -45 95 -97 10 -60 -4 -220 -21 -247 -21 -35 -73
-52 -153 -52 l-70 0 0 55 0 55 49 0 c69 0 81 15 81 99 0 86 -10 99 -80 103
l-55 3 -3 37 c-2 23 5 52 18 77 l20 41 -60 0 -60 0 0 -235 0 -235 -211 0 -211
0 -33 33 c-45 45 -55 89 -55 244 l0 133 203 2 202 3 3 27 3 28 -203 2 -203 3
-3 58 -3 57 506 0 505 0 0 -295z m1230 235 l0 -60 -100 0 -100 0 0 -30 0 -30
105 0 105 0 0 -140 c0 -140 0 -141 -26 -165 -21 -20 -38 -25 -75 -25 l-49 0 0
49 c0 44 3 50 22 53 17 2 25 13 31 41 14 58 6 67 -58 67 l-55 0 0 -145 0 -145
-205 0 c-237 0 -254 5 -286 73 -15 35 -19 66 -19 190 l0 147 200 0 200 0 0 30
0 30 -197 2 -198 3 -3 58 -3 57 356 0 355 0 0 -60z m4475 15 c0 -38 -2 -40
-32 -43 l-33 -3 -2 -247 -3 -247 -50 0 -50 0 -3 248 -2 247 -54 0 c-54 0 -54
0 -75 -43 -12 -24 -21 -50 -21 -58 0 -8 16 -62 35 -119 38 -112 44 -175 20
-219 -17 -33 -79 -66 -142 -75 -42 -6 -43 -6 -43 23 0 45 9 60 45 76 61 25 61
46 0 214 -24 67 -25 78 -15 122 7 27 16 52 21 55 24 14 3 24 -51 24 l-60 0 0
-250 0 -250 -39 0 c-34 0 -47 7 -95 54 -65 64 -187 128 -291 155 l-69 17 -12
47 c-9 35 -9 49 0 56 23 18 145 75 261 122 l120 49 -212 0 -213 0 0 45 0 45
533 -2 532 -3 0 -40z m234 7 c43 -32 66 -81 66 -143 0 -93 -49 -143 -139 -143
-97 0 -156 60 -156 159 0 65 28 110 83 136 50 23 108 20 146 -9z m1148 2 c56
-36 82 -159 47 -225 -21 -41 -92 -73 -143 -64 -84 14 -133 70 -134 155 -1 63
27 109 83 138 49 25 105 24 147 -4z m-9334 -20 c30 -30 40 -78 35 -179 l-3
-70 -115 -3 c-178 -4 -222 29 -229 169 -1 43 -1 86 3 94 4 12 30 15 144 15
136 0 140 -1 165 -26z m2648 -3 c29 -29 29 -31 29 -141 l0 -112 -127 4 c-102
3 -133 7 -155 21 -43 29 -58 74 -58 171 l0 86 141 0 141 0 29 -29z m3215 -73
c66 -44 94 -89 94 -147 0 -68 -27 -110 -91 -143 -30 -15 -63 -30 -74 -33 -18
-6 -17 -8 10 -22 39 -20 165 -121 165 -132 0 -5 -16 -21 -35 -35 l-34 -26 -63
51 c-66 54 -131 89 -205 111 l-44 13 3 59 3 59 75 2 c174 3 248 106 118 165
-41 18 -70 17 -87 -4 -14 -17 -1 -33 37 -43 l32 -8 -25 -38 c-29 -42 -55 -47
-99 -18 -38 25 -55 57 -56 101 0 71 69 119 171 120 48 0 65 -5 105 -32z
m-7098 -180 l3 -68 -126 0 -125 0 0 70 0 71 123 -3 122 -3 3 -67z m9472 -218
l70 -69 0 -56 c0 -30 -2 -55 -5 -55 -3 0 -57 43 -121 96 -64 52 -141 112 -170
131 l-54 36 0 62 c0 34 3 64 6 68 9 9 191 -133 274 -213z m973 148 c45 -34
119 -98 165 -142 l82 -80 0 -53 c0 -29 -2 -53 -5 -53 -3 0 -56 41 -117 90 -60
50 -137 109 -169 131 l-59 40 0 64 c0 39 4 65 11 65 5 0 47 -28 92 -62z
m-9325 -45 l142 -56 0 -53 c0 -30 -2 -54 -4 -54 -2 0 -73 29 -157 64 l-154 64
-3 52 c-3 47 -1 52 15 46 10 -4 82 -32 161 -63z m2650 0 l142 -57 0 -53 c0
-64 19 -65 -175 15 l-140 58 -3 53 c-3 48 -1 53 15 47 10 -4 82 -32 161 -63z
m-4053 -159 c44 -15 83 -30 88 -33 4 -4 -8 -22 -27 -40 l-34 -33 -98 32 -98
33 37 33 c20 19 40 34 44 34 5 0 44 -12 88 -26z"/>
<path d="M5270 8345 c-191 -59 -242 -317 -89 -448 43 -37 118 -67 169 -67 51
0 126 30 169 67 155 132 101 391 -93 448 -60 18 -97 18 -156 0z"/>
<path d="M3880 8290 l0 -80 213 0 c210 0 214 0 235 23 30 32 29 81 -3 112 -24
25 -24 25 -235 25 l-210 0 0 -80z"/>
<path d="M3523 6090 c-155 -41 -265 -98 -369 -193 -253 -231 -307 -640 -128
-966 96 -174 229 -288 409 -349 l80 -27 783 -3 782 -3 0 781 0 780 -742 -1
c-696 0 -748 -1 -815 -19z"/>
<path d="M9385 6087 c-151 -42 -279 -113 -374 -209 -143 -143 -213 -318 -213
-533 -1 -363 217 -676 537 -771 55 -17 126 -18 838 -21 l777 -4 0 781 0 780
-742 -1 c-733 0 -744 -1 -823 -22z"/>
<path d="M12782 3003 c32 -34 58 -85 58 -112 0 -11 10 -26 23 -32 12 -6 41
-27 65 -46 l42 -34 0 125 0 126 -107 0 -107 0 26 -27z"/>
<path d="M13628 2874 c-60 -25 -108 -49 -108 -52 0 -4 21 -16 47 -26 26 -11
75 -39 110 -62 l63 -42 0 114 c0 63 -1 114 -2 114 -2 0 -51 -21 -110 -46z"/>
<path d="M6766 2784 c-15 -10 -53 -14 -153 -14 l-133 0 0 -70 0 -70 133 0
c128 0 135 1 156 24 19 20 22 33 19 84 -3 58 -4 60 -22 46z"/>
<path d="M7514 2825 c-4 -8 -4 -49 -2 -89 3 -62 7 -79 27 -100 24 -25 28 -26
148 -26 l123 0 0 115 0 115 -145 0 c-120 0 -147 -3 -151 -15z"/>
<path d="M9862 2744 c4 -131 8 -134 174 -134 l124 0 0 115 0 115 -151 0 -151
0 4 -96z"/>
<path d="M11383 2824 c-3 -8 -3 -49 -1 -91 5 -68 8 -79 32 -100 25 -21 36 -23
147 -23 l119 0 0 115 0 115 -145 0 c-123 0 -147 -2 -152 -16z"/>
<path d="M15726 2871 l-108 -48 63 -30 c35 -17 88 -46 117 -66 l52 -36 0 115
c0 63 -3 114 -7 113 -5 0 -57 -22 -117 -48z"/>
</g>
</svg>
