<?xml version="1.0" encoding="UTF-8"?>
<svg version="1.1" xmlns="http://www.w3.org/2000/svg" width="1905" height="2000">
<path d="M0 0 C6.25391339 0.01117355 12.50780946 -0.00073695 18.76171925 -0.0099082 C31.68827759 -0.02819532 44.61477267 -0.02776372 57.54133656 -0.01678469 C70.62315829 -0.00574182 83.70493847 -0.00348853 96.78676274 -0.01173403 C97.61603024 -0.01225072 98.44529775 -0.01276741 99.29969457 -0.01329976 C102.6777131 -0.01543308 106.05573159 -0.01762794 109.43375003 -0.01990086 C140.82710877 -0.04100902 172.2204397 -0.04251481 203.61380246 -0.03131106 C205.00646555 -0.03081428 205.00646555 -0.03081428 206.42726325 -0.03030748 C207.35720789 -0.02997576 208.28715254 -0.02964404 209.24527732 -0.02930227 C237.61628116 -0.01919563 265.98727351 -0.01661042 294.35827877 -0.02139284 C296.26069149 -0.02170276 298.16310422 -0.02201139 300.06551694 -0.02231872 C307.71119202 -0.02356067 315.3568671 -0.02483535 323.00254217 -0.02615778 C344.37322919 -0.02982518 365.74391625 -0.03210805 387.11460354 -0.03330233 C388.08764342 -0.03335691 389.0606833 -0.0334115 390.06320924 -0.03346773 C421.05235272 -0.035104 452.0414922 -0.03060166 483.03063443 -0.02190401 C484.03522547 -0.02162302 485.03981652 -0.02134202 486.07484972 -0.02105251 C502.38709617 -0.01647313 518.69934253 -0.01159509 535.01158889 -0.00669182 C599.70134641 0.01273241 664.39107083 0.01183082 729.08082821 -0.00761416 C745.38499434 -0.01249922 761.68916047 -0.01734355 777.99332669 -0.02190401 C778.99733562 -0.02218581 780.00134456 -0.0224676 781.03577802 -0.02275793 C811.99363839 -0.03138714 842.95149602 -0.03503892 873.90935757 -0.03330233 C874.88167616 -0.03324799 875.85399475 -0.03319366 876.85577753 -0.03313767 C898.20302011 -0.03188757 919.5502624 -0.02935264 940.89750468 -0.02566032 C948.536202 -0.02434384 956.17489932 -0.02309151 963.81359664 -0.02185747 C965.71377512 -0.02154792 967.61395359 -0.021233 969.51413206 -0.02091269 C997.87499219 -0.01614508 1026.23583936 -0.02019094 1054.59669787 -0.03030748 C1055.52513993 -0.03063866 1056.45358199 -0.03096984 1057.41015866 -0.03131106 C1058.33687578 -0.03164179 1059.2635929 -0.03197252 1060.21839236 -0.03231327 C1091.52419051 -0.04336359 1122.82995536 -0.03925238 1154.13574877 -0.01818808 C1157.5028986 -0.01597883 1160.87004847 -0.013832 1164.23719838 -0.01173403 C1165.06351219 -0.0112132 1165.88982601 -0.01069238 1166.74117964 -0.01015577 C1179.78322198 -0.00229069 1192.82522265 -0.00773295 1205.86726121 -0.01881005 C1218.71596898 -0.02943587 1231.564607 -0.02559609 1244.413306 -0.0067537 C1251.27580244 0.00292829 1258.13813334 0.00607957 1265.00062653 -0.00837763 C1340.93204186 -0.15640223 1410.57260535 15.81272077 1471.01198056 64.51387022 C1471.92721493 65.23703428 1472.84244931 65.96019834 1473.78541806 66.70527647 C1488.91021085 78.81811196 1502.97497246 92.32810835 1515.01198056 107.51387022 C1515.92123543 108.6120525 1516.83280377 109.70832234 1517.74635556 110.80293272 C1535.23715183 131.92505647 1548.89959048 155.50462952 1560.01198056 180.51387022 C1560.35471005 181.28360166 1560.69743954 182.05333311 1561.05055477 182.84638975 C1577.09184472 219.45186087 1583.51515162 258.51497429 1583.39229729 298.24515817 C1583.39573937 300.74832215 1583.40049189 303.2514846 1583.40641826 305.75464392 C1583.4162582 311.1670735 1583.41699237 316.5793806 1583.40934522 321.99181145 C1583.39795237 330.09445885 1583.40410071 338.1970319 1583.41340922 346.29967865 C1583.42877604 360.11608091 1583.43003914 373.9324516 1583.42342999 387.74885938 C1583.41678701 401.73700139 1583.41669634 415.72512086 1583.42447712 429.71326254 C1583.42496512 430.59903929 1583.42545312 431.48481604 1583.42595591 432.39743452 C1583.42796424 436.00548409 1583.43001737 439.61353364 1583.43212765 443.22158315 C1583.45349308 479.78991216 1583.4555884 516.35822449 1583.45007061 552.92655817 C1583.44931484 557.97421552 1583.44858723 563.02187287 1583.44788864 568.06953023 C1583.44768 569.57354031 1583.44768 569.57354031 1583.44746715 571.10793444 C1583.44451142 593.35563063 1583.44753104 615.60332482 1583.45178492 637.85102065 C1583.45236708 640.8983394 1583.45293593 643.94565815 1583.45350056 646.9929769 C1583.45501559 655.16239212 1583.4565425 663.33180732 1583.45809356 671.50122253 C1583.4688459 728.51057183 1583.47355667 785.51991929 1583.4656234 842.5292692 C1583.46540094 844.14025506 1583.46540094 844.14025506 1583.46517399 845.78378609 C1583.46351508 857.75917434 1583.46176549 869.73456258 1583.45998098 881.7099508 C1583.45981995 882.7910954 1583.45965893 883.87223999 1583.45949303 884.98614654 C1583.45818558 893.7582032 1583.45818558 893.7582032 1583.45753184 898.1027992 C1583.44714107 967.25309746 1583.45490723 1036.40337028 1583.47853329 1105.55366514 C1583.48447699 1122.97869453 1583.49036867 1140.40372393 1583.49594261 1157.82875345 C1583.49628639 1158.90176792 1583.49663016 1159.9747824 1583.49698434 1161.08031246 C1583.50751632 1194.16519193 1583.51310587 1227.25006927 1583.51349976 1260.33495042 C1583.51351254 1261.37406578 1583.51352532 1262.41318115 1583.51353849 1263.48378485 C1583.51376681 1286.2975737 1583.51276042 1309.11136237 1583.51062944 1331.92515112 C1583.50987472 1340.08873584 1583.5091965 1348.25232056 1583.50854929 1356.41590529 C1583.5083866 1358.44668391 1583.50821893 1360.47746253 1583.50804627 1362.50824115 C1583.50532844 1394.82650858 1583.513865 1427.14476053 1583.52790038 1459.46302463 C1583.54232747 1492.92865149 1583.54183322 1526.39424897 1583.52452566 1559.85987484 C1583.52272159 1563.45907407 1583.52098139 1567.05827331 1583.51929142 1570.65747259 C1583.51887092 1571.5407379 1583.51845042 1572.42400321 1583.51801718 1573.33403413 C1583.51173764 1587.27786368 1583.5187954 1601.22165262 1583.53150062 1615.16547644 C1583.54373117 1628.90110219 1583.54151039 1642.63666436 1583.52428031 1656.37228537 C1583.51546043 1663.70927776 1583.51276671 1671.04613471 1583.52854963 1678.38311917 C1583.59884238 1712.91100766 1583.31420186 1746.00434995 1574.01198056 1779.51387022 C1573.78784481 1780.33468076 1573.56370907 1781.15549131 1573.33278134 1782.0011749 C1556.38129688 1843.37105158 1519.51316149 1899.56783345 1468.70582821 1938.21406553 C1467.05618235 1939.47995117 1465.42834353 1940.76924311 1463.80494931 1942.06855772 C1457.8568881 1946.79826413 1451.75711094 1951.0966762 1445.32448056 1955.13887022 C1444.62854794 1955.57723203 1443.93261532 1956.01559385 1443.21559384 1956.46723936 C1438.26996399 1959.51387022 1438.26996399 1959.51387022 1436.01198056 1959.51387022 C1435.68198056 1960.17387022 1435.35198056 1960.83387022 1435.01198056 1961.51387022 C1433.35899996 1962.45245233 1431.66192793 1963.31376098 1429.94948056 1964.13887022 C1428.85893368 1964.6686749 1427.76838681 1965.19847959 1426.64479306 1965.74433897 C1426.0547247 1966.02970518 1425.46465634 1966.31507139 1424.85670712 1966.60908506 C1422.97733987 1967.53086047 1421.11477559 1968.48061984 1419.25416806 1969.43965147 C1403.09952407 1977.73495064 1386.40580108 1984.31729475 1369.01198056 1989.51387022 C1367.94076962 1989.84515928 1366.86955868 1990.17644834 1365.76588681 1990.51777647 C1339.72282083 1998.33989876 1312.89523444 2000.98418307 1285.79557755 2000.89418695 C1283.45783994 2000.89763007 1281.12010397 2000.90238328 1278.78237133 2000.90830792 C1272.40786393 2000.92071747 1266.03349184 2000.91471306 1259.65898407 2000.90547424 C1253.42440038 2000.89792918 1247.18982893 2000.90762637 1240.95524923 2000.91529888 C1228.06429228 2000.93065778 1215.1733692 2000.93193162 1202.28240635 2000.92531965 C1189.23277215 2000.91867466 1176.1831621 2000.91858851 1163.13352825 2000.92636678 C1162.30691576 2000.92685478 1161.48030327 2000.92734278 1160.62864191 2000.92784557 C1157.26153878 2000.92985392 1153.89443569 2000.93190705 1150.52733262 2000.93401731 C1116.40827605 2000.95537797 1082.28923737 2000.95747892 1048.17017579 2000.95196027 C1043.4612647 2000.9512045 1038.75235361 2000.95047688 1034.04344251 2000.9497783 C1033.10804638 2000.9496392 1032.17265025 2000.94950011 1031.20890878 2000.94935681 C1010.45030655 2000.94640058 989.69170646 2000.94942119 968.93310462 2000.95367459 C966.08941323 2000.95425674 963.24572185 2000.95482559 960.40203046 2000.95539022 C952.77842914 2000.95690526 945.15482782 2000.95843218 937.53122651 2000.95998322 C884.33357393 2000.9707349 831.13592334 2000.97544702 777.93827011 2000.96751306 C776.93617553 2000.96736476 775.93408094 2000.96721645 774.90161986 2000.96706365 C763.72800502 2000.96540475 752.55439021 2000.96365516 741.38077539 2000.96187064 C740.37202346 2000.96170962 739.36327152 2000.96154859 738.32395135 2000.96138269 C730.13956776 2000.96007529 730.13956776 2000.96007529 726.08558772 2000.9594215 C661.56681968 2000.94903094 597.04807893 2000.95679677 532.52931454 2000.98042295 C516.271346 2000.98636669 500.01337745 2000.9922584 483.75540879 2000.99783228 C482.75424738 2000.99817605 481.75308597 2000.99851982 480.72158633 2000.998874 C449.84989969 2001.00940675 418.97821532 2001.01499556 388.10652687 2001.01538942 C387.13685708 2001.0154022 386.16718728 2001.01541498 385.16813355 2001.01542815 C363.87855363 2001.01565648 342.58897391 2001.01465003 321.29939409 2001.0125191 C313.68114526 2001.01176438 306.06289642 2001.01108617 298.44464758 2001.01043895 C296.54954343 2001.01027626 294.65443928 2001.01010859 292.75933513 2001.00993593 C262.606362 2001.00721865 232.45340547 2001.0157523 202.30043591 2001.02979004 C171.07509499 2001.04422042 139.84978554 2001.04371871 108.62444568 2001.02641532 C105.2654432 2001.02461127 101.9064407 2001.02287106 98.54743817 2001.02118108 C97.72312414 2001.02076058 96.89881012 2001.02034008 96.04951689 2001.01990684 C83.04197501 2001.01362994 70.03447669 2001.02068099 57.02694096 2001.03339028 C44.21029017 2001.0456278 31.39370751 2001.04339012 18.57706179 2001.02616997 C11.73235453 2001.01735673 4.88781445 2001.01507193 -1.95688641 2001.03043929 C-46.81031532 2001.12404026 -88.47040278 1998.09699314 -130.80051944 1981.76387022 C-131.93126896 1981.32848936 -133.06201847 1980.8931085 -134.22703312 1980.44453428 C-141.86689004 1977.45561833 -149.21743962 1974.15449237 -156.47630069 1970.34199522 C-161.88614519 1967.52574692 -167.43140734 1965.02576336 -172.98801944 1962.51387022 C-172.98801944 1961.85387022 -172.98801944 1961.19387022 -172.98801944 1960.51387022 C-174.63801944 1960.18387022 -176.28801944 1959.85387022 -177.98801944 1959.51387022 C-177.98801944 1958.85387022 -177.98801944 1958.19387022 -177.98801944 1957.51387022 C-179.63801944 1957.18387022 -181.28801944 1956.85387022 -182.98801944 1956.51387022 C-182.98801944 1955.85387022 -182.98801944 1955.19387022 -182.98801944 1954.51387022 C-183.70087101 1954.25476865 -184.41372257 1953.99566709 -185.14817569 1953.72871397 C-198.04171455 1948.21304604 -210.00485039 1937.25828347 -220.36692569 1927.94355772 C-221.85349268 1926.63251309 -223.41817623 1925.41145769 -224.98801944 1924.20137022 C-225.64801944 1923.64449522 -226.30801944 1923.08762022 -226.98801944 1922.51387022 C-226.98801944 1921.85387022 -226.98801944 1921.19387022 -226.98801944 1920.51387022 C-227.58042423 1920.24671201 -228.17282901 1919.97955381 -228.78318546 1919.7042999 C-231.02139794 1918.49584856 -232.48080917 1917.26528693 -234.26536319 1915.46699522 C-234.8615546 1914.86887022 -235.45774601 1914.27074522 -236.07200382 1913.65449522 C-236.68366398 1913.03058897 -237.29532413 1912.40668272 -237.92551944 1911.76387022 C-238.8372089 1910.85121397 -238.8372089 1910.85121397 -239.76731632 1909.92012022 C-247.02792365 1902.58902155 -253.23336533 1894.44357144 -259.56809757 1886.319046 C-260.8637296 1884.67188245 -262.18251999 1883.04300231 -263.50364444 1881.41621397 C-270.43413529 1872.75310041 -276.05792557 1863.46160904 -281.61887882 1853.87324522 C-282.84068202 1851.7677698 -284.07555931 1849.67080817 -285.31614444 1847.57637022 C-296.98801944 1827.71793417 -296.98801944 1827.71793417 -296.98801944 1822.51387022 C-297.64801944 1822.18387022 -298.30801944 1821.85387022 -298.98801944 1821.51387022 C-300.9090106 1816.83667435 -302.46696589 1812.06773642 -304.03489444 1807.26387022 C-305.04130941 1804.36011557 -306.1343665 1801.49872961 -307.2377753 1798.63081358 C-311.52579627 1787.46186501 -311.52579627 1787.46186501 -312.56614444 1781.60371397 C-312.98640105 1779.35186962 -312.98640105 1779.35186962 -313.87864444 1776.57246397 C-315.49200242 1771.01935659 -316.43956487 1765.31958775 -317.48801944 1759.63887022 C-317.70071476 1758.52512022 -317.91341007 1757.41137022 -318.13255069 1756.26387022 C-321.4093529 1738.61336507 -322.27769063 1721.63283447 -322.23970173 1703.72506521 C-322.24179075 1701.22668709 -322.24475529 1698.72830959 -322.24851046 1696.22993342 C-322.25466238 1690.80320817 -322.25466133 1685.37653767 -322.24914337 1679.94981273 C-322.2409203 1671.82584369 -322.24432523 1663.70190698 -322.24990865 1655.57793716 C-322.25908918 1641.72883733 -322.25881815 1627.87975221 -322.2533469 1614.03065107 C-322.24783855 1600.00207723 -322.24668839 1585.97351306 -322.25082157 1571.94493864 C-322.25107991 1571.05788421 -322.25133826 1570.17082979 -322.25160443 1569.25689493 C-322.25267101 1565.64388576 -322.25376843 1562.0308766 -322.25490498 1558.41786746 C-322.26547641 1524.78846796 -322.26620428 1491.15907495 -322.26061008 1457.52967451 C-322.26044449 1456.53375057 -322.2602789 1455.53782664 -322.26010829 1454.51172319 C-322.25994243 1453.51420271 -322.25977657 1452.51668224 -322.25960569 1451.48893387 C-322.25455875 1421.09529945 -322.25325681 1390.70166771 -322.25565097 1360.30803297 C-322.25580593 1358.27250219 -322.25596025 1356.23697142 -322.25611391 1354.20144064 C-322.25673485 1346.02144632 -322.25737218 1337.84145201 -322.25803344 1329.66145769 C-322.25986742 1306.79538325 -322.26100865 1283.92930881 -322.26160572 1261.06323431 C-322.26163301 1260.02198683 -322.2616603 1258.98073935 -322.26168842 1257.90793891 C-322.26250692 1224.73140545 -322.26025345 1191.55487292 -322.25590656 1158.37833975 C-322.25576606 1157.30235103 -322.25562556 1156.22636232 -322.25548081 1155.11776788 C-322.25319093 1137.64453888 -322.25075199 1120.1713099 -322.24830046 1102.69808092 C-322.23858712 1033.3926969 -322.23903929 964.08732061 -322.24876163 894.78193662 C-322.25120401 877.31512895 -322.25362612 859.84832127 -322.25590656 842.38151357 C-322.25604746 841.30601689 -322.25618835 840.23052021 -322.25633352 839.12243272 C-322.26064581 805.97859497 -322.26247445 772.83475787 -322.26160572 739.69091985 C-322.26157855 738.65046451 -322.26155138 737.61000917 -322.26152339 736.53802488 C-322.26089844 713.69855913 -322.25963117 690.85909346 -322.25778471 668.01962778 C-322.25712643 659.8475893 -322.25650027 651.67555082 -322.25588329 643.50351234 C-322.25572851 641.4705278 -322.25557105 639.43754326 -322.2554109 637.40455873 C-322.25302367 607.01768082 -322.25505666 576.63080593 -322.26010829 546.2439284 C-322.26027388 545.24783887 -322.26043947 544.25174935 -322.26061008 543.22547529 C-322.26077545 542.2312238 -322.26094081 541.2369723 -322.26111119 540.21259198 C-322.266627 506.68220852 -322.26459965 473.15183285 -322.25404859 439.62145051 C-322.25294388 436.0209669 -322.25187048 432.42048329 -322.25082157 428.81999967 C-322.25056115 427.93637996 -322.25030074 427.05276025 -322.25003244 426.14236418 C-322.2460876 412.15070517 -322.24883419 398.15905584 -322.25435958 384.1673977 C-322.25965003 370.40978274 -322.25779322 356.65218409 -322.2483314 342.89457119 C-322.2429961 334.82936237 -322.24310213 326.76419829 -322.2512946 318.69899161 C-322.25676532 312.70991924 -322.25179742 306.72090316 -322.24278205 300.7318331 C-322.24076799 298.32512816 -322.24209924 295.9184175 -322.24719393 293.51171711 C-322.2712068 281.30156315 -321.93816391 269.57421742 -319.98801944 257.51387022 C-319.82268844 255.80448247 -319.67062426 254.09365165 -319.54270694 252.38105772 C-318.97184448 246.34586988 -317.52407979 240.52402433 -316.11301944 234.63887022 C-315.85649601 233.54445615 -315.59997257 232.45004209 -315.33567569 231.32246397 C-314.56499258 228.04996533 -313.77875637 224.78157576 -312.98801944 221.51387022 C-312.73471866 220.45031309 -312.48141788 219.38675596 -312.22044132 218.29096983 C-310.14262582 209.7226654 -307.2285699 201.70072621 -303.98801944 193.51387022 C-303.73036808 192.85290342 -303.47271671 192.19193662 -303.20725773 191.51094053 C-296.19100335 173.56729939 -287.96437765 156.00773465 -277.98801944 139.51387022 C-277.32801944 139.51387022 -276.66801944 139.51387022 -275.98801944 139.51387022 C-275.76243351 138.83582334 -275.53684757 138.15777647 -275.30442569 137.45918272 C-273.63132824 133.71581335 -271.3649668 130.66676977 -268.92551944 127.38887022 C-265.40686586 122.76278104 -265.40686586 122.76278104 -262.98801944 117.51387022 C-261.34506904 115.82382006 -259.67543309 114.15952836 -257.98801944 112.51387022 C-256.65390541 110.90656782 -255.34195739 109.28065866 -254.05051944 107.63887022 C-248.06998228 100.25056053 -241.55195434 93.38296526 -234.98801944 86.51387022 C-234.15915226 85.64246397 -233.33028507 84.77105772 -232.47630069 83.87324522 C-227.0165927 78.26650738 -221.10087942 73.3884842 -214.98801944 68.51387022 C-213.88751858 67.60166545 -212.78862229 66.68752225 -211.69114444 65.77168272 C-173.78561926 34.38867308 -128.03081714 14.26052059 -79.98801944 4.51387022 C-79.05266894 4.32334264 -78.11731844 4.13281507 -77.15362398 3.93651394 C-51.70323597 -0.9557529 -25.79695874 -0.05434641 0 0 Z " fill="#DDDEDF" transform="translate(321.9880194440484,-0.5138702169060707)"/>
<path d="M0 0 C0.66651121 -0.0060911 1.33302241 -0.01218221 2.01973093 -0.01845789 C4.23422783 -0.03499381 6.44814376 -0.03032578 8.66268921 -0.0255127 C10.25837801 -0.03285882 11.85406151 -0.04144663 13.44973755 -0.05117798 C17.77241936 -0.07335294 22.09491029 -0.07632644 26.41764116 -0.07443047 C30.03542204 -0.07431051 33.65316286 -0.08288563 37.27093256 -0.09120798 C45.81463137 -0.11043005 54.35823251 -0.11333127 62.90194702 -0.10656738 C71.69010715 -0.09993724 80.47784642 -0.1227522 89.26592124 -0.15988111 C96.83055863 -0.19067123 104.39506134 -0.20192779 111.95976007 -0.1980443 C116.46895487 -0.19598528 120.97782256 -0.20132318 125.48695755 -0.22593689 C129.73400969 -0.24835414 133.98038343 -0.2462033 138.22743988 -0.22600937 C139.77649599 -0.22262487 141.3255991 -0.22757655 142.87459183 -0.24199295 C157.82437688 -0.37140394 168.94443696 3.18968109 180.0196228 13.39440918 C180.79048218 14.07374512 181.56134155 14.75308105 182.3555603 15.45300293 C190.37207132 22.90863177 198.90525144 34.26164129 200.4258728 45.35925293 C200.47227905 46.83071777 200.47227905 46.83071777 200.5196228 48.33190918 C200.80627268 53.52146639 201.50026607 58.43767803 202.5196228 63.51940918 C204.61488607 74.09490217 205.91160121 84.7583818 204.53134155 95.51159668 C201.91797766 118.46313604 205.2422945 141.54270753 212.38290405 163.40270996 C213.26202112 166.15264746 214.05189673 168.92563671 214.8453064 171.70129395 C215.87159482 175.27528401 216.94193094 178.83563115 218.0196228 182.39440918 C218.24230835 183.13336426 218.4649939 183.87231934 218.69442749 184.63366699 C221.88259835 195.0795357 225.79470689 204.72935874 230.94003296 214.36169434 C232.06528168 216.48037839 233.1596595 218.61308604 234.25009155 220.74987793 C238.6702837 229.35355144 243.4183086 237.49118504 249.0196228 245.39440918 C249.48884155 246.07116699 249.9580603 246.7479248 250.4414978 247.44519043 C257.21981562 257.21897698 264.27745964 266.29348733 272.5562439 274.83435059 C274.22395136 276.61223692 275.8068235 278.4511298 277.3946228 280.30065918 C280.93067506 284.36707107 284.70342046 288.09803918 288.6446228 291.76940918 C289.34337524 292.42078857 290.04212769 293.07216797 290.76205444 293.74328613 C296.36082614 298.90093862 302.11859306 303.66916319 308.28866577 308.13903809 C309.49588764 309.01457192 310.69764239 309.89767235 311.89511108 310.78649902 C323.39969363 319.32307587 335.47014492 326.50716315 348.0196228 333.39440918 C348.73456909 333.7917627 349.44951538 334.18911621 350.18612671 334.59851074 C362.41065717 341.38958647 374.9193779 346.9053183 388.2539978 351.12097168 C391.17738513 352.10958607 393.97369938 353.18166228 396.82040405 354.35925293 C401.94374701 356.43144229 407.10792852 357.96010197 412.4571228 359.33190918 C413.9272583 359.71041016 413.9272583 359.71041016 415.42709351 360.09655762 C442.62500316 366.90725088 469.18781394 369.58876905 497.11434937 369.96569824 C510.78351975 370.17807462 522.3998963 371.59356281 535.0821228 377.08190918 C536.13415894 377.5303418 537.18619507 377.97877441 538.27011108 378.4407959 C545.34030611 381.51522447 551.87013908 384.69883142 558.0196228 389.39440918 C558.84848999 390.01831543 559.67735718 390.64222168 560.53134155 391.28503418 C563.0785768 393.26665057 565.55402298 395.3123471 568.0196228 397.39440918 C569.23778687 398.39214355 569.23778687 398.39214355 570.4805603 399.41003418 C591.36475599 417.19783492 605.14044917 444.19926526 608.0196228 471.39440918 C609.26168774 488.67130848 608.33161909 504.87783307 603.0196228 521.39440918 C602.64708374 522.58679199 602.27454468 523.7791748 601.89071655 525.00769043 C593.8219822 548.03310309 577.72697998 568.1008344 557.89743042 582.07073975 C556.70475741 582.91145676 555.51956725 583.76297188 554.34494019 584.62872314 C540.95779574 594.21451324 526.94701277 593.59802575 511.05216217 593.19271469 C508.21966858 593.12740563 505.3871623 593.09573352 502.55413055 593.0634222 C418.06242007 592.0753416 418.06242007 592.0753416 398.0196228 585.39440918 C396.64979375 585.22734834 395.27484986 585.10028703 393.89852905 584.99987793 C392.63915527 584.90029785 392.63915527 584.90029785 391.3543396 584.79870605 C390.43950806 584.72716309 389.52467651 584.65562012 388.5821228 584.58190918 C379.41232278 583.80762901 370.31650373 582.69678055 361.2071228 581.39440918 C360.03415649 581.22836182 358.86119019 581.06231445 357.65267944 580.89123535 C352.06683398 580.07562256 346.57088625 579.13535251 341.07455444 577.84997559 C337.62509167 577.08524973 334.13845765 576.59701841 330.6446228 576.08190918 C310.99697999 573.06894068 291.44998357 569.28521471 272.03182983 565.0447998 C269.98563389 564.60298865 267.93699286 564.17238315 265.88632202 563.75183105 C250.3616155 560.56068107 236.98148625 555.87313006 223.0196228 548.39440918 C222.15869019 547.9432373 221.29775757 547.49206543 220.41073608 547.02722168 C199.36242737 535.99059693 178.51784111 524.00158451 159.0196228 510.39440918 C157.67200272 509.46727328 156.32434468 508.54019254 154.97665405 507.61315918 C140.59285578 497.65170368 126.75783127 486.99434874 113.5796814 475.48327637 C111.35253879 473.54199566 109.11007967 471.62346914 106.84066772 469.73181152 C98.31251808 462.59687725 90.35294608 455.00948802 82.53060913 447.11120605 C80.56467562 445.12679804 78.590638 443.15072778 76.61532593 441.17565918 C70.54179867 435.08534342 64.5509394 428.98851569 59.0196228 422.39440918 C58.04730224 421.27579599 57.07336444 420.15858631 56.0977478 419.04284668 C49.14728631 411.01963345 42.44888781 402.84123477 36.0196228 394.39440918 C35.48079468 393.686875 34.94196655 392.97934082 34.3868103 392.25036621 C21.79234909 375.62668382 10.48470053 358.30772201 0.08798218 340.23425293 C-0.87946282 338.56819592 -1.87373339 336.91778738 -2.8710022 335.26940918 C-13.28050242 318.01402142 -23.02419994 297.87689868 -26.4881897 277.94128418 C-26.87263828 275.95191535 -27.34866376 273.98018877 -27.85928345 272.01940918 C-36.68709401 237.14550801 -40.31459516 200.50545047 -42.45707703 164.69750977 C-42.75201414 159.79311553 -43.09430913 154.89675908 -43.49307251 149.99963379 C-45.13088051 129.18623224 -45.35562894 108.4338787 -45.35098267 87.56506348 C-45.35077649 82.63436665 -45.37848163 77.70422695 -45.41252708 72.77366352 C-45.43481892 68.91899548 -45.4388201 65.06446366 -45.43776321 61.20973778 C-45.44010011 59.39064738 -45.44881382 57.57155212 -45.46442795 55.75252724 C-45.58869712 39.83933424 -43.08769413 27.85377366 -31.65615845 15.98034668 C-22.92677725 7.7854174 -12.35895977 0.03885403 0 0 Z " fill="#FBD603" transform="translate(450.9803771972656,565.6055908203125)"/>
<path d="M0 0 C0.66691905 -0.00467997 1.33383811 -0.00935994 2.02096683 -0.01418173 C4.24870459 -0.02611744 6.47582552 -0.01668033 8.7035675 -0.00723267 C10.30382648 -0.01129921 11.90408264 -0.01664156 13.5043335 -0.02316284 C17.84761558 -0.03683795 22.19068382 -0.03153555 26.53396964 -0.02202559 C31.08569138 -0.01442343 35.63739496 -0.02147676 40.18911743 -0.02618408 C47.83817321 -0.03164279 55.48714211 -0.02444991 63.13618469 -0.01016235 C71.9628917 0.00613522 80.7893905 0.00089721 89.61609238 -0.01564157 C97.20441514 -0.02928804 104.79267546 -0.0311598 112.38100654 -0.02332556 C116.90848529 -0.01866263 121.43586647 -0.01798547 125.96333885 -0.02793503 C130.22582338 -0.03664744 134.48804182 -0.03050528 138.75049782 -0.01325226 C140.3088652 -0.00930887 141.86725524 -0.01038434 143.4256134 -0.01704025 C157.94682273 -0.07330794 166.86695506 2.23460102 178.23994446 11.38095093 C178.95150696 11.9043103 179.66306946 12.42766968 180.39619446 12.96688843 C189.18937042 19.84091884 197.49272955 32.80185357 199.74537659 43.86270142 C200.07820451 46.58117363 200.2997316 49.28444314 200.47431946 52.01766968 C200.54938721 53.04752487 200.62445496 54.07738007 200.70179749 55.13844299 C201.51137395 67.47944849 201.54005585 79.83491322 201.50068665 92.19760132 C201.48998386 96.17879558 201.50064296 100.15953599 201.51338196 104.14071655 C201.52444003 125.53453284 200.59745168 146.88897103 197.55830383 168.08651733 C197.1817777 170.800162 196.84511482 173.5179023 196.50556946 176.23641968 C192.51623263 207.11091472 186.21921811 238.39549253 176.62275696 268.04110718 C175.5490818 271.36886768 174.53803422 274.7119508 173.54463196 278.06454468 C168.18519373 296.11685092 168.18519373 296.11685092 164.42353821 304.55282593 C162.97380917 308.01686494 161.82409641 311.55868907 160.67744446 315.13095093 C159.18686295 319.74462825 157.57023487 324.10020125 155.26728821 328.37313843 C153.51165373 331.80430239 152.12665119 335.39253605 150.68135071 338.96298218 C138.70133867 367.3708698 124.56151961 393.16580845 104.23994446 416.38095093 C103.57736633 417.14536499 102.91478821 417.90977905 102.23213196 418.69735718 C100.57829906 420.60118807 98.91013807 422.49146194 97.23994446 424.38095093 C96.64085266 425.06487915 96.04176086 425.74880737 95.42451477 426.45346069 C89.34596208 433.31252511 82.95522547 439.81922429 76.46479797 446.28646851 C74.67318496 448.07269763 72.88701391 449.8642444 71.10127258 451.65634155 C65.31649255 457.44478427 59.50016736 463.10216191 53.23994446 468.38095093 C52.15628496 469.32961503 51.0742083 470.28009075 49.99385071 471.23251343 C41.75978205 478.41474291 33.24072184 485.14554757 24.49482727 491.69247437 C22.97864687 492.82780391 21.46501023 493.96653771 19.95381165 495.10848999 C3.98301889 507.17246714 -12.61635265 518.13759445 -29.87528992 528.26864624 C-31.89105918 529.45826344 -33.89616216 530.66466836 -35.90068054 531.87313843 C-49.39623214 539.97262597 -62.94940988 546.98353901 -77.76005554 552.38095093 C-79.90716457 553.21099186 -82.05298905 554.04436279 -84.19755554 554.88095093 C-105.7854023 563.16798235 -127.71668889 569.21425797 -150.14677429 574.73251343 C-152.00668045 575.19401481 -153.86314704 575.6694742 -155.71708679 576.15438843 C-161.63127492 577.68797765 -167.50135798 578.91120589 -173.53739929 579.85360718 C-177.06681027 580.43114716 -180.56432511 581.12400121 -184.07255554 581.81845093 C-191.98704308 583.35675147 -199.95555965 584.38706827 -207.95463562 585.37875366 C-209.36458801 585.55386475 -209.36458801 585.55386475 -210.80302429 585.73251343 C-211.63857849 585.83386597 -212.47413269 585.93521851 -213.33500671 586.03964233 C-214.92759346 586.26378774 -216.51372339 586.54149088 -218.0867157 586.8765564 C-221.53677093 587.52749832 -224.99563651 587.81560794 -228.49052429 588.09970093 C-229.23981705 588.16250244 -229.9891098 588.22530396 -230.7611084 588.29000854 C-232.35040291 588.42248149 -233.93981821 588.55351216 -235.52934265 588.68319702 C-237.89500812 588.87665376 -240.26015289 589.07568127 -242.62528992 589.27548218 C-257.01847916 590.47569803 -271.43291344 591.59423572 -285.88505554 591.44345093 C-286.75775085 591.43893921 -287.63044617 591.43442749 -288.52958679 591.42977905 C-290.60644214 591.41836776 -292.68326049 591.40046153 -294.76005554 591.38095093 C-291.41975426 588.7087099 -287.80753448 586.68478752 -284.07255554 584.63095093 C-278.20659185 581.33191476 -272.88580204 577.76641594 -267.76005554 573.38095093 C-266.56316101 572.38321655 -266.56316101 572.38321655 -265.34208679 571.36532593 C-253.99033876 561.57994313 -246.01563356 550.32454381 -238.76005554 537.38095093 C-238.33982117 536.66552124 -237.91958679 535.95009155 -237.48661804 535.21298218 C-229.36830995 520.50260792 -226.18115627 501.79517675 -226.32255554 485.25595093 C-226.33012878 483.99766479 -226.33770203 482.73937866 -226.34550476 481.44296265 C-226.88832899 450.38311506 -239.43523065 422.59108843 -261.39286804 400.76376343 C-266.79746292 395.73189923 -272.57985668 391.41024593 -278.76005554 387.38095093 C-279.52704773 386.86790405 -280.29403992 386.35485718 -281.08427429 385.82626343 C-287.14922817 381.9567226 -293.4566218 379.33992289 -300.14677429 376.77548218 C-302.56272946 375.84305408 -304.95367574 374.843166 -307.31474304 373.77938843 C-310.67100657 372.41709552 -313.62476045 371.71531987 -317.19755554 371.19345093 C-318.24814148 371.03489624 -319.29872742 370.87634155 -320.38114929 370.71298218 C-321.55870789 370.54862671 -321.55870789 370.54862671 -322.76005554 370.38095093 C-319.52399509 368.48787229 -316.93370235 368.06118814 -313.20927429 367.85360718 C-312.12533386 367.78528687 -311.04139343 367.71696655 -309.92460632 367.64657593 C-308.77717957 367.57954468 -307.62975281 367.51251343 -306.44755554 367.44345093 C-297.75524384 366.86085951 -289.44931006 366.03191786 -280.94755554 364.09970093 C-277.76948197 363.38307649 -274.60603615 362.86409802 -271.38505554 362.38095093 C-267.16022416 361.69735752 -263.34558324 360.67042511 -259.33036804 359.21688843 C-256.71160198 358.36519247 -254.07560435 357.72163849 -251.39433289 357.09921265 C-241.18430524 354.71976756 -231.51305112 351.19441669 -221.76005554 347.38095093 C-220.58696838 346.92969849 -220.58696838 346.92969849 -219.3901825 346.46932983 C-187.30301992 333.93673286 -157.37036252 315.77291905 -131.99833679 292.43563843 C-129.88966027 290.4999249 -127.74219226 288.62275117 -125.57255554 286.75595093 C-119.10215865 281.10409822 -113.27854996 274.9590802 -107.76005554 268.38095093 C-107.34658875 267.89191284 -106.93312195 267.40287476 -106.50712585 266.89901733 C-93.0477493 250.88168483 -80.39386064 233.03125608 -71.69755554 213.94345093 C-71.35885437 213.21045776 -71.0201532 212.4774646 -70.67118835 211.72225952 C-70.00093205 210.26961156 -69.33302951 208.81587467 -68.66777039 207.3609314 C-67.88141645 205.64567307 -67.0817061 203.93654987 -66.27958679 202.22860718 C-56.3233649 180.87634053 -50.80318959 157.66474539 -47.76005554 134.38095093 C-47.57845886 133.15730835 -47.39686218 131.93366577 -47.20976257 130.67294312 C-46.4647331 123.81177437 -46.71808305 116.90101831 -46.80715179 110.01105499 C-46.84967988 106.51330526 -46.87278639 103.01550506 -46.89718246 99.51758957 C-46.94264019 93.0271463 -46.99562058 86.53700275 -47.08232117 80.04696655 C-47.14216942 75.51078828 -47.17680373 70.97499568 -47.19550323 66.43846893 C-47.2071386 64.72423433 -47.22777797 63.01003332 -47.25814056 61.29602814 C-47.56819952 43.33834073 -42.55969375 30.62106143 -30.13505554 17.31845093 C-24.58536348 11.97838938 -18.13463939 7.66875344 -11.76005554 3.38095093 C-10.63054364 2.58219827 -10.63054364 2.58219827 -9.47821331 1.76730919 C-6.11179027 0.05031231 -3.77220007 0.00358002 0 0 Z " fill="#134A97" transform="translate(1284.7600555419922,566.6190490722656)"/>
<path d="M0 0 C0.75000123 -0.00453111 1.50000246 -0.00906223 2.27273101 -0.01373065 C4.78138619 -0.02637281 7.28982421 -0.0247544 9.79850769 -0.02310181 C11.59905272 -0.0290872 13.39959519 -0.03589277 15.20013428 -0.04345703 C20.08866292 -0.06112374 24.97712155 -0.06581271 29.86567903 -0.0670886 C32.92098547 -0.06851045 35.97627413 -0.07278069 39.03157616 -0.07808304 C49.69380702 -0.09658595 60.35598787 -0.10475337 71.01823425 -0.10317993 C80.95153725 -0.10197865 90.88462291 -0.12307773 100.81787091 -0.15466726 C109.3505206 -0.18083406 117.88309933 -0.19154705 126.41578883 -0.19026911 C131.50998524 -0.18975957 136.60398853 -0.1954383 141.69814491 -0.21662521 C146.49086743 -0.23601419 151.28321276 -0.23612751 156.07594872 -0.22159195 C157.83189826 -0.21950353 159.58787146 -0.22420671 161.34378052 -0.23631287 C177.84832782 -0.34270567 177.84832782 -0.34270567 184.46720886 4.26742554 C190.28945698 10.08967365 190.69798378 16.3226902 190.74868196 24.18747735 C190.74626688 25.38104592 190.74385179 26.57461449 190.74136353 27.80435181 C190.7466002 29.08057459 190.75183688 30.35679737 190.75723225 31.67169356 C190.77138949 35.20754514 190.77307598 38.74330872 190.77263534 42.27918458 C190.77428555 46.09527539 190.78735585 49.91133016 190.79882812 53.72740173 C190.82166099 62.06836045 190.82959681 70.40929369 190.83465457 78.75027943 C190.83791342 83.96028077 190.84443701 89.17027474 190.85165596 94.38027191 C190.87121922 108.81100857 190.88762518 123.24173839 190.89053249 137.67248917 C190.89072006 138.59562514 190.89090763 139.51876112 190.89110089 140.46987091 C190.89146713 142.34121211 190.89183083 144.21255332 190.892192 146.08389452 C190.89237481 147.01280448 190.89255762 147.94171444 190.89274597 148.89877319 C190.8930168 150.29384266 190.8930168 150.29384266 190.89329309 151.71709535 C190.89683465 166.78672883 190.92385708 181.85621941 190.96124386 196.92580333 C190.99933886 212.40495909 191.01869005 227.88404396 191.01899201 243.36324763 C191.01957629 252.0513008 191.02804949 260.73918345 191.05698967 269.42719269 C191.08151946 276.82507466 191.08877568 284.22272393 191.07374214 291.6206356 C191.06657984 295.39313287 191.06740072 299.16517077 191.09015274 302.93761635 C191.11461481 307.03293562 191.10008832 311.12721273 191.0819397 315.2225647 C191.09513967 316.40721038 191.10833963 317.59185606 191.1219396 318.8124001 C191.04638236 326.28471831 189.77468902 332.05022756 185.46720886 338.26742554 C180.82136273 342.15476618 176.95156076 343.39065142 171.00920105 343.39682007 C170.13439087 343.39997223 169.25958069 343.40312439 168.35826111 343.40637207 C167.41968262 343.40434784 166.48110413 343.40232361 165.51408386 343.40023804 C164.0528006 343.40167313 164.0528006 343.40167313 162.56199646 343.40313721 C160.5009403 343.40381734 158.43988199 343.40197466 156.37882996 343.39779663 C153.24287523 343.39246914 150.10706525 343.39773533 146.97111511 343.40414429 C144.96460438 343.40348302 142.95809374 343.40220087 140.95158386 343.40023804 C140.02110229 343.40226227 139.09062073 343.4042865 138.13194275 343.40637207 C122.40863874 343.35052203 122.40863874 343.35052203 117.7066707 338.8954103 C113.16012028 332.92369373 113.03300951 325.21517604 113.0819397 318.03152466 C113.076704 317.03914299 113.07146831 316.04676133 113.06607395 315.02430749 C113.05217359 311.71947872 113.05939837 308.41504398 113.0665741 305.11019897 C113.06082859 302.7327744 113.05374459 300.35535275 113.04542542 297.97793579 C113.03033624 292.86901903 113.02453597 287.76020661 113.02595329 282.65126801 C113.02781636 275.25929618 113.01231185 267.8674659 112.99150074 260.47552755 C112.95802225 248.47355223 112.93632868 236.47158823 112.92350769 224.46957397 C112.9227382 223.75224627 112.92196871 223.03491856 112.9211759 222.29585364 C112.91807339 219.38907329 112.91499058 216.48229292 112.91193586 213.57551251 C112.90339742 205.56493647 112.8924976 197.55436434 112.88053894 189.54379272 C112.87947092 188.82613132 112.8784029 188.10846992 112.87730252 187.3690612 C112.85921375 175.40529308 112.83322726 163.44155195 112.8024078 151.47781014 C112.78552232 144.76466601 112.77337389 138.05156855 112.77216911 131.33840179 C112.77103109 125.03139334 112.76130966 118.72445962 112.74494553 112.41747284 C112.74065807 110.10071185 112.73981106 107.7839416 112.74262047 105.46717834 C112.74601067 102.30982142 112.73726289 99.15272326 112.72549438 95.99539185 C112.73146603 94.61403254 112.73146603 94.61403254 112.73755831 93.20476699 C112.7084637 88.8142702 112.63774972 85.21283389 110.46720886 81.26742554 C104.46776261 75.66794237 96.18616599 77.01273476 88.50578308 76.97225952 C86.98713348 76.96075705 85.46852376 76.94033239 83.95011902 76.91073608 C72.03986159 76.45754429 72.03986159 76.45754429 61.46720886 81.26742554 C58.07519686 86.43302419 58.04260928 90.90405561 58.08866882 96.86767578 C58.08413869 97.8280539 58.07960856 98.78843201 58.07494116 99.7779125 C58.0633233 102.99281681 58.07296204 106.20730458 58.08244324 109.42221069 C58.07833773 111.72872181 58.07287698 114.03523085 58.06616211 116.34173584 C58.05443431 121.30827729 58.05195392 126.2747076 58.05651855 131.24126053 C58.06332719 139.10024943 58.04746065 146.95909214 58.02812195 154.8180542 C58.00267493 165.84235405 57.98637334 176.86663447 57.97843933 187.89096069 C57.97767856 188.93982722 57.97767856 188.93982722 57.97690243 190.00988297 C57.97337678 194.97073031 57.97024783 199.93157788 57.96720886 204.89242554 C57.96374186 210.54883851 57.96009183 216.20525128 57.95597839 221.86166382 C57.95547578 222.5582336 57.95497316 223.25480337 57.95445532 223.97248133 C57.94569309 235.61188452 57.92509646 247.25123728 57.8964963 258.89060819 C57.87817119 266.69659106 57.87423697 274.5024069 57.88143158 282.30840611 C57.88295764 287.17535688 57.87214249 292.04222478 57.85805321 296.90915298 C57.85406357 299.15846951 57.85515324 301.40780196 57.86182594 303.65711212 C57.93959088 332.06369863 57.93959088 332.06369863 51.96720886 338.39242554 C46.84183415 342.23645657 43.14745542 343.38176605 36.80387878 343.41268921 C35.90912338 343.41906906 35.01436798 343.42544891 34.09249878 343.43202209 C33.13720779 343.43313492 32.18191681 343.43424774 31.19767761 343.43539429 C30.20270767 343.43872269 29.20773773 343.44205109 28.18261719 343.44548035 C26.08046428 343.45053506 23.97830338 343.45288912 21.87614441 343.45272827 C18.67654539 343.45491064 15.47729362 343.47307067 12.27775574 343.49203491 C10.23023087 343.49497004 8.18270437 343.49695404 6.13517761 343.49789429 C5.18595932 343.5050798 4.23674103 343.51226532 3.25875854 343.51966858 C-5.44620337 343.49004948 -12.20645231 342.59376437 -18.53279114 336.26742554 C-21.61493423 331.71759526 -21.65829752 326.03292256 -21.65304565 320.68652344 C-21.65510765 319.05863388 -21.65510765 319.05863388 -21.6572113 317.39785767 C-21.65361603 316.22253479 -21.65002075 315.04721191 -21.64631653 313.83627319 C-21.64646255 312.58694 -21.64660858 311.33760681 -21.64675903 310.05041504 C-21.6461831 306.63763212 -21.64117911 303.22491021 -21.63418508 299.81213808 C-21.6279199 296.24070701 -21.62734524 292.66927507 -21.62615967 289.09783936 C-21.62305567 282.34066482 -21.61485486 275.58350652 -21.60481018 268.82633913 C-21.59362009 261.13106449 -21.5881313 253.43578907 -21.58311474 245.74050832 C-21.57267145 229.916138 -21.55509008 214.09178386 -21.53279114 198.26742554 C-22.01412097 198.57908724 -22.4954508 198.89074894 -22.99136639 199.21185493 C-25.20453661 200.64475967 -27.41785722 202.07743194 -29.63117981 203.51010132 C-30.3881591 204.00025223 -31.1451384 204.49040314 -31.92505646 204.9954071 C-38.2170116 209.06777724 -44.52734144 213.11049342 -50.84529114 217.14242554 C-58.42752871 221.98752586 -65.99515993 226.85321571 -73.53279114 231.76742554 C-90.68185703 242.94363301 -107.9508053 253.93359198 -125.27204895 264.84066772 C-127.55730072 266.28289357 -129.83851015 267.73131938 -132.11872864 269.18148804 C-143.66936152 276.51932317 -155.33455364 283.65695563 -167.0403595 290.74423218 C-169.34897942 292.15509316 -171.63808503 293.59269823 -173.92341614 295.04086304 C-176.58066918 296.70742466 -179.21248324 298.20224431 -182.09529114 299.45492554 C-182.7772052 299.75785522 -183.45911926 300.06078491 -184.16169739 300.37289429 C-196.24652484 304.9320796 -209.95685227 304.85481132 -221.90388489 299.85726929 C-236.23479187 293.27306121 -248.79271912 282.8259811 -255.53279114 268.26742554 C-261.39479284 252.10456536 -256.08629536 237.21920688 -250.49861145 221.92807007 C-247.55626633 213.82248939 -245.27344911 205.81717476 -244.03669739 197.27133179 C-243.51717509 194.17433455 -242.73113442 191.23406292 -241.90779114 188.20492554 C-236.84069483 166.45538908 -242.58745187 145.21682879 -253.53279114 126.26742554 C-256.20703789 122.06280571 -259.05266897 117.98486524 -261.92488098 113.91390991 C-266.1272338 107.94863707 -269.73331669 102.03202591 -272.53279114 95.26742554 C-273.14574036 93.92937866 -273.14574036 93.92937866 -273.77107239 92.56430054 C-276.75381939 84.89730826 -276.9767748 77.36184148 -277.09529114 69.20492554 C-277.12220032 68.11679565 -277.1491095 67.02866577 -277.17683411 65.90756226 C-277.11380611 52.4256715 -271.42914368 42.57831293 -262.38825989 32.99398804 C-250.53686842 21.4767154 -236.49082238 16.84155259 -220.82380676 12.85629272 C-218.97385045 12.38079244 -217.1341732 11.86540734 -215.29841614 11.33773804 C-212.38988366 10.5223402 -209.49398855 9.86607917 -206.53279114 9.26742554 C-205.53143127 9.06439819 -205.53143127 9.06439819 -204.50984192 8.85726929 C-179.81916081 4.10844433 -151.10801346 3.62830809 -126.53279114 9.26742554 C-125.22858215 9.54948853 -125.22858215 9.54948853 -123.89802551 9.83724976 C-102.43751683 14.56322373 -81.79176314 22.70460864 -62.53279114 33.26742554 C-61.53771545 33.80738159 -61.53771545 33.80738159 -60.52253723 34.35824585 C-50.69616936 39.74503154 -41.6716797 45.86203816 -32.86360168 52.79721069 C-31.73305359 53.66805298 -31.73305359 53.66805298 -30.57966614 54.55648804 C-29.91805481 55.07936401 -29.25644348 55.60223999 -28.57478333 56.14096069 C-26.07735035 57.51866942 -24.34231647 57.47926936 -21.53279114 57.26742554 C-21.5537384 56.00672241 -21.57468567 54.74601929 -21.5962677 53.44711304 C-21.66899201 48.74329102 -21.71470849 44.03951814 -21.7525177 39.33529663 C-21.7725595 37.30428697 -21.79980061 35.27333448 -21.83454895 33.24252319 C-21.88339528 30.31317997 -21.90583457 27.38460354 -21.92341614 24.45492554 C-21.94406128 23.55564331 -21.96470642 22.65636108 -21.98597717 21.72982788 C-21.98808049 15.74070742 -20.91952897 11.26996695 -17.53279114 6.26742554 C-12.2474765 1.11763179 -7.20387336 -0.03206127 0 0 Z " fill="#4B4B4A" transform="translate(998.5327911376953,1323.7325744628906)"/>
<path d="M0 0 C8.07443685 -0.81333743 12.93801766 2.6281806 19.26953125 7.03515625 C49.97179627 28.39995786 92.65219167 18.98880868 126.82421875 13.1328125 C155.26331169 8.33837074 183.96136301 7.18817954 208.67578125 24.35546875 C223.26120498 35.68599197 232.93018205 49.91807778 235.67578125 68.35546875 C235.9770898 71.84047129 236.05647326 75.29586241 236.05078125 78.79296875 C236.05062012 79.73873779 236.05045898 80.68450684 236.05029297 81.65893555 C235.91147502 90.40665814 234.39851434 98.60804444 232.24456787 107.06222534 C231.66264361 109.40843731 231.12916905 111.76122547 230.60888672 114.12182617 C230.43291962 114.91868332 230.25695251 115.71554047 230.07565308 116.5365448 C229.87771652 117.43691216 229.87771652 117.43691216 229.67578125 118.35546875 C231.46810181 118.32404785 231.46810181 118.32404785 233.29663086 118.29199219 C237.76379232 118.21915263 242.23090213 118.17351025 246.69848633 118.13574219 C248.6256597 118.11572632 250.55277311 118.08850492 252.47973633 118.05371094 C255.26268377 118.00474834 258.04482281 117.98239958 260.828125 117.96484375 C261.67849838 117.94419861 262.52887177 117.92355347 263.40501404 117.90228271 C270.90698276 117.89951924 276.76750574 120.00409706 282.61328125 124.73046875 C287.09090969 130.42926858 286.97236481 136.35405855 286.94140625 143.28515625 C286.9433197 144.23431915 286.94523315 145.18348206 286.94720459 146.16140747 C286.94856166 148.16343451 286.9448987 150.16547049 286.93652344 152.16748047 C286.92584104 155.21341997 286.93642283 158.25876651 286.94921875 161.3046875 C286.94789661 163.25651171 286.94533308 165.20833555 286.94140625 167.16015625 C286.94545471 168.06248993 286.94950317 168.96482361 286.95367432 169.89450073 C286.9020631 176.94272936 286.44997292 184.78557846 281.67578125 190.35546875 C275.35259292 193.30597191 270.04740661 193.78037777 263.13232422 193.72436523 C261.59421082 193.73001495 261.59421082 193.73001495 260.02502441 193.73577881 C257.8108804 193.74218776 255.59670885 193.74190346 253.38256454 193.7355938 C249.87677443 193.72645512 246.37151583 193.73673844 242.86575317 193.75221252 C232.90286028 193.79224343 222.94001075 193.79351077 212.97705078 193.79125977 C206.87285437 193.79120869 200.76894658 193.81036123 194.66482925 193.84059334 C191.21360923 193.85141933 187.76293941 193.8392898 184.31173706 193.82676697 C182.19463557 193.83567036 180.07753856 193.84574438 177.96044922 193.85717773 C176.52489182 193.84256248 176.52489182 193.84256248 175.06033325 193.82765198 C169.31055927 193.88962395 166.04785908 194.51464203 161.67578125 198.35546875 C158.80475065 204.33566087 159.30363788 210.77992746 159.30517578 217.28369141 C159.3008505 219.32282168 159.26461901 221.35969613 159.2265625 223.3984375 C159.14164414 233.31359512 159.86557103 244.85356569 166.05078125 253.10546875 C170.95091792 257.3055859 176.22876283 257.71873532 182.48828125 257.66796875 C183.23327881 257.6623291 183.97827637 257.65668945 184.74584961 257.65087891 C198.16654548 257.36566264 211.03317354 253.91277711 223.95141602 250.51318359 C229.95705931 248.94895593 235.91648708 247.78054793 242.04833984 246.82836914 C244.81489229 246.3969389 244.81489229 246.3969389 247.9140625 245.26171875 C255.95920132 242.62172977 266.31226137 243.03846969 273.86328125 246.85546875 C279.13494131 249.92137767 283.70434155 254.77143113 285.32348633 260.74511719 C285.67663464 263.3303147 285.86684199 265.8743436 285.98828125 268.48046875 C286.04822266 269.32867188 286.10816406 270.176875 286.16992188 271.05078125 C286.2939194 272.84274544 286.40450223 274.63567567 286.50341797 276.42919922 C286.69029936 279.60194753 286.94864621 282.76558319 287.203125 285.93359375 C287.79951399 294.2830396 287.91938341 302.61296545 287.92578125 310.98046875 C287.92645599 311.78206421 287.92713074 312.58365967 287.92782593 313.4095459 C287.89995682 334.44316669 286.94272326 355.41568884 279.67578125 375.35546875 C279.44004395 376.0112793 279.20430664 376.66708984 278.96142578 377.34277344 C266.71329303 410.87494066 240.16938528 432.58439803 208.67578125 447.35546875 C203.43248376 449.61844651 198.07631766 451.50728518 192.67578125 453.35546875 C190.71630846 454.08156781 188.75785653 454.81043219 186.80078125 455.54296875 C167.15077614 462.83678421 147.28629503 464.74153846 126.48828125 464.73046875 C125.65865875 464.73219086 124.82903625 464.73391296 123.97427368 464.73568726 C109.29564039 464.73223752 95.3754183 462.83880173 80.98828125 459.91796875 C79.95123047 459.71365234 78.91417969 459.50933594 77.84570312 459.29882812 C50.79794669 453.86217827 27.58913865 442.55864935 7.67578125 423.35546875 C6.96808594 422.7109375 6.26039063 422.06640625 5.53125 421.40234375 C-4.94206459 411.59027713 -12.66221925 398.95243439 -19.32421875 386.35546875 C-19.64406738 385.76975098 -19.96391602 385.1840332 -20.29345703 384.58056641 C-33.92900195 358.74933703 -36.35499243 329.31273721 -36.44921875 300.73046875 C-36.45405273 299.42480957 -36.45888672 298.11915039 -36.46386719 296.77392578 C-36.46161133 295.52981934 -36.45935547 294.28571289 -36.45703125 293.00390625 C-36.45533936 291.33593994 -36.45533936 291.33593994 -36.45361328 289.63427734 C-36.31610721 286.14992546 -35.8369634 282.80273224 -35.32421875 279.35546875 C-35.21151376 277.62542339 -35.12777785 275.89315768 -35.078125 274.16015625 C-35.04678467 273.20689453 -35.01544434 272.25363281 -34.9831543 271.27148438 C-34.95133057 270.26794922 -34.91950684 269.26441406 -34.88671875 268.23046875 C-34.5743824 260.09344951 -34.18426185 251.97135888 -33.51171875 243.85546875 C-33.42482788 242.59452393 -33.42482788 242.59452393 -33.33618164 241.30810547 C-32.72707624 234.5733146 -30.82484546 229.20286206 -26.32421875 224.078125 C-25.66421875 223.53027344 -25.00421875 222.98242188 -24.32421875 222.41796875 C-23.66421875 221.85207031 -23.00421875 221.28617188 -22.32421875 220.703125 C-18.11591041 217.86744848 -13.5513752 218.1951767 -8.62890625 218.1875 C-7.8814212 218.1841716 -7.13393616 218.1808432 -6.36380005 218.17741394 C-4.78192762 218.17235842 -3.20004456 218.17000519 -1.61816406 218.17016602 C0.77166984 218.16799519 3.1610299 218.14986876 5.55078125 218.13085938 C27.2565625 218.04913281 27.2565625 218.04913281 34.67578125 224.35546875 C40.23303637 233.80814717 39.30858667 247.0612315 39.93673706 257.70410156 C40.60685264 318.3060241 40.60685264 318.3060241 67.67578125 369.35546875 C90.91549748 386.34584952 122.74291475 382.34390218 149.86532593 380.0809021 C151.67128338 379.9327472 153.47815138 379.79523508 155.28579712 379.66934204 C171.19556427 378.5297132 186.06687719 374.01419643 197.67578125 362.35546875 C205.0218497 353.62143345 208.45081499 342.45966667 211.87890625 331.75390625 C212.67578125 329.35546875 212.67578125 329.35546875 213.67578125 327.35546875 C190.5371247 327.01142236 190.5371247 327.01142236 167.59716797 329.74462891 C156.62695467 331.76249707 145.90224453 332.68897879 134.73828125 332.79296875 C133.54251465 332.81504395 132.34674805 332.83711914 131.11474609 332.85986328 C119.65035729 332.83289571 107.27192096 330.53269327 98.67578125 322.35546875 C87.35399123 307.57846834 87.38779873 291.63881154 87.34025574 273.80485344 C87.3318562 270.75678911 87.31125886 267.70900889 87.28771973 264.661026 C87.23176997 257.10541866 87.1960216 249.549743 87.16009521 241.99401855 C87.12883868 235.57513953 87.08968553 229.15640473 87.0398407 222.73764229 C87.01982378 219.73913249 87.01146888 216.74073477 87.00354004 213.74217224 C86.99057094 211.90745633 86.97705112 210.07274421 86.96289062 208.23803711 C86.96387253 207.40838943 86.96485443 206.57874176 86.96586609 205.72395325 C86.92026373 201.48429412 86.62974074 198.22504324 84.67578125 194.35546875 C83.37809814 194.35404373 82.08041504 194.35261871 80.7434082 194.35115051 C68.5018958 194.33446644 56.26071522 194.29164923 44.01937866 194.22337818 C37.72624972 194.18911714 31.43336333 194.16399948 25.14013672 194.15991211 C19.0644885 194.15562742 12.98938735 194.12714921 6.91390991 194.08203697 C4.59837025 194.06906766 2.28276509 194.06475225 -0.0328064 194.06931496 C-3.28158321 194.07422465 -6.52876342 194.04810957 -9.77734375 194.01489258 C-11.20694176 194.02783104 -11.20694176 194.02783104 -12.66542053 194.04103088 C-19.03673523 193.93213975 -23.41555353 192.5174646 -28.32421875 188.35546875 C-29.9453125 185.96875 -29.9453125 185.96875 -30.76171875 183.66796875 C-31.19291016 182.51748047 -31.19291016 182.51748047 -31.6328125 181.34375 C-31.97505859 180.35955078 -31.97505859 180.35955078 -32.32421875 179.35546875 C-32.65421875 178.69546875 -32.98421875 178.03546875 -33.32421875 177.35546875 C-33.44771547 174.72424005 -33.51265016 172.12062791 -33.52734375 169.48828125 C-33.53589386 168.30333572 -33.53589386 168.30333572 -33.5446167 167.0944519 C-33.5540782 165.41486959 -33.56060523 163.73526862 -33.56445312 162.05566406 C-33.57404972 159.52504209 -33.6050141 156.99527116 -33.63671875 154.46484375 C-33.78063904 132.61660999 -33.78063904 132.61660999 -28.13671875 124.79296875 C-21.44841605 118.99643974 -13.12429388 118.23336503 -4.51983643 118.22416687 C-3.86023005 118.22205116 -3.20062368 118.21993544 -2.52102923 118.21775562 C-0.32422385 118.21179336 1.87252348 118.21275306 4.06933594 118.21362305 C5.65003557 118.21058902 7.23073433 118.20706689 8.81143188 118.20309448 C12.20970506 118.19522347 15.60796782 118.19006734 19.00624847 118.18680382 C24.38629847 118.1808764 29.76628292 118.16431944 35.14630127 118.14546204 C36.99093243 118.13912512 38.83556362 118.13279949 40.68019485 118.12648487 C41.60383158 118.12331906 42.52746831 118.12015325 43.47909403 118.1168915 C55.99842092 118.07487644 68.51771665 118.04184579 81.03710938 118.02954102 C89.49001437 118.02114784 97.94275621 117.99861237 106.39557958 117.96018535 C110.86382976 117.94047032 115.33183631 117.92800503 119.80013275 117.93301964 C124.00608359 117.93768263 128.21157299 117.92377119 132.41743088 117.89600754 C133.95482493 117.88912397 135.49226699 117.88893848 137.02965927 117.89620781 C144.85690812 117.92945999 151.67180741 117.66811181 158.85234451 114.21183491 C160.67578125 113.35546875 160.67578125 113.35546875 162.67578125 113.35546875 C165.53689415 105.84790849 166.15288708 97.49136508 163.42578125 89.85546875 C155.93281358 83.04367996 148.28031335 80.53080075 138.23828125 80.94921875 C122.26902051 82.06087684 122.26902051 82.06087684 106.56640625 84.88720703 C102.77060711 85.82733394 98.74120112 85.71857772 94.84179688 85.87304688 C90.09134775 86.10466951 85.46723764 86.66370581 80.76171875 87.36328125 C71.87635403 88.58034057 63.07325137 88.79542804 54.11328125 88.79296875 C53.2815036 88.79403625 52.44972595 88.79510376 51.59274292 88.79620361 C38.10072261 88.77128043 25.54684393 87.69966494 12.67578125 83.35546875 C11.58571777 82.99461182 11.58571777 82.99461182 10.47363281 82.62646484 C-3.41281336 77.88854923 -13.45604541 71.58865211 -20.57421875 58.48046875 C-25.93142911 46.72693395 -27.78155313 33.07350503 -23.359375 20.69140625 C-19.87380411 12.82585382 -15.60853936 6.17228116 -8.32421875 1.35546875 C-5.46549593 0.40256114 -2.9440988 0.45027393 0 0 Z " fill="#4B4B4A" transform="translate(417.32421875,1205.64453125)"/>
<path d="M0 0 C1.12669133 -0.00538554 2.25338267 -0.01077108 3.41421616 -0.01631981 C7.18577092 -0.03061571 10.95697551 -0.02349137 14.72854614 -0.01637268 C17.43416249 -0.02043233 20.139761 -0.02893877 22.84536743 -0.03717041 C29.42948129 -0.05435037 36.01349968 -0.05520005 42.59763013 -0.04995751 C47.95065694 -0.04591283 53.30365559 -0.04736289 58.65668106 -0.05270576 C59.80036021 -0.0538284 59.80036021 -0.0538284 60.96714399 -0.05497371 C62.51617368 -0.05650522 64.06520336 -0.05804357 65.61423303 -0.05958868 C80.13499323 -0.07331098 94.65569953 -0.06787808 109.17645849 -0.05640347 C122.45223236 -0.04647283 135.72786682 -0.05940927 149.00361918 -0.08333766 C162.64427844 -0.10773798 176.2848728 -0.11733415 189.92555344 -0.11068493 C197.58009846 -0.10719459 205.2345363 -0.10941243 212.88906479 -0.12693596 C219.40567043 -0.14166969 225.92209343 -0.14227826 232.43869554 -0.12486505 C235.76148574 -0.1163617 239.08368246 -0.11636262 242.40649796 -0.1295166 C246.01381903 -0.14270574 249.62025593 -0.13119572 253.22753906 -0.11352539 C254.79190604 -0.1279329 254.79190604 -0.1279329 256.38787639 -0.14263147 C264.37939976 -0.06219091 270.41976081 1.7026224 276.67825317 6.76268005 C281.45534132 12.84261042 281.02947366 19.3736773 281.00817871 26.7587738 C281.01270982 27.90966775 281.01724094 29.0605617 281.02190936 30.24633121 C281.03236695 33.4324354 281.03388133 36.61839736 281.03152061 39.80451322 C281.03111189 43.24439685 281.04215707 46.68424702 281.05163574 50.12411499 C281.06823747 56.86175644 281.07374499 63.59936289 281.0748605 70.33702308 C281.07581176 75.81779115 281.07992596 81.29854771 281.08626175 86.77931213 C281.10387512 102.33347035 281.11310095 117.88760098 281.1116008 133.44176924 C281.11152089 134.28001844 281.11144098 135.11826764 281.11135864 135.98191833 C281.11127688 136.82119696 281.11119512 137.66047559 281.11111088 138.5251869 C281.11029888 152.11126715 281.12941469 165.69723629 281.15763538 179.28328443 C281.18641298 193.24824312 281.20017286 207.21314774 281.19844782 221.17813683 C281.1977854 229.01227382 281.20321202 236.84629447 281.22480392 244.68040466 C281.24308045 251.35425164 281.24731061 258.02792961 281.23378508 264.70179087 C281.2272865 268.10215607 281.22922761 271.50193514 281.24449158 274.90231133 C281.33342276 296.0939765 279.96703443 314.23122629 264.74075317 330.5790863 C260.77856591 334.16207987 256.42495226 336.84960236 251.74075317 339.38768005 C250.95571411 339.82467224 250.17067505 340.26166443 249.36184692 340.7118988 C242.94767691 343.64614993 236.5543047 343.76596464 229.61575317 343.82518005 C228.68529175 343.83541199 227.75483032 343.84564392 226.7961731 343.85618591 C221.48042481 343.7887188 217.0850999 343.10225437 212.10891724 341.25022888 C207.39430184 339.53303958 202.51815478 338.32379434 197.67825317 337.01268005 C196.67987427 336.73424255 195.68149536 336.45580505 194.65286255 336.16893005 C175.39856958 330.94662946 155.9614812 327.47710689 136.11184692 325.5790863 C135.034895 325.47331331 133.95794308 325.36754032 132.84835625 325.25856209 C107.95760721 322.86762047 83.16952638 322.92531708 58.19143677 323.2775116 C49.08385753 323.4056464 39.97642241 323.50871204 30.86816216 323.57249641 C27.74362989 323.60165842 24.62027746 323.65606499 21.49613953 323.71261597 C7.22788318 323.88725192 -4.51010738 322.76004554 -15.25924683 312.38768005 C-25.9126257 301.53856981 -26.40699147 284.86676389 -26.49752808 270.62986755 C-26.50559982 269.409216 -26.51367157 268.18856445 -26.52198792 266.93092346 C-26.535775 264.35402321 -26.54652101 261.77710511 -26.55441284 259.20018005 C-26.56592178 256.58586714 -26.58635608 253.97157752 -26.61593628 251.35740662 C-26.99255936 218.02100351 -26.99255936 218.02100351 -18.38424683 207.01268005 C-10.3063685 198.94804415 -0.01253962 194.37503559 10.57669067 190.53611755 C15.70940109 188.67313377 20.71590586 186.52093681 25.74075317 184.38768005 C26.91057739 183.91394958 26.91057739 183.91394958 28.10403442 183.4306488 C37.35134127 179.57076051 48.07128151 173.89188755 53.74075317 165.38768005 C54.4316012 160.64814128 54.46085685 156.64119386 52.05325317 152.45018005 C43.17452212 144.53131181 30.98377737 144.24385132 19.67825317 142.95018005 C4.45039711 141.16313056 -8.65956264 137.9192385 -18.75924683 125.57518005 C-27.51999969 112.79908213 -26.57277887 96.45124512 -26.56002808 81.6493988 C-26.56392292 79.75517687 -26.5682592 77.86095581 -26.57301331 75.96673584 C-26.58043175 72.01904959 -26.58021421 68.07145287 -26.57492065 64.12376404 C-26.56910216 59.0756601 -26.58613545 54.02792023 -26.60926533 48.97987652 C-26.624014 45.07729975 -26.62487333 41.17481077 -26.6217556 37.27221107 C-26.62226726 35.41075222 -26.62747579 33.54928825 -26.63756752 31.68785667 C-26.64995012 29.08715019 -26.64313184 26.48715504 -26.63156128 23.88645935 C-26.63920502 23.12631531 -26.64684875 22.36617126 -26.65472412 21.58299255 C-26.59253276 15.23558918 -25.10759541 10.64677276 -21.00924683 5.63768005 C-14.3347263 0.17670871 -8.32717604 -0.04778309 0 0 Z " fill="#4B4B4A" transform="translate(1243.2592468261719,1323.612319946289)"/>
<path d="M0 0 C2.22902708 0.02909446 4.4556756 0.02051569 6.68481445 0.00756836 C43.19905928 0.05856766 75.94742481 17.19054528 101.59692383 42.29858398 C128.57637458 70.27302157 137.61290768 105.19874415 136.98364258 143.03295898 C136.50461021 156.48008191 133.63106441 169.95815395 128.66333008 182.46655273 C128.39133789 183.17811523 128.1193457 183.88967773 127.83911133 184.62280273 C116.38450824 212.40410252 95.68550536 235.69228032 69.66333008 250.46655273 C68.55989258 251.13428711 67.45645508 251.80202148 66.31958008 252.48999023 C37.74074636 269.28903232 0.90011831 271.78866129 -30.85693359 263.94482422 C-65.64016754 254.79056167 -94.35624838 231.83044494 -112.61523438 201.06616211 C-118.64982973 190.63564547 -123.21605849 180.11600657 -126.33666992 168.46655273 C-126.52148926 167.81283691 -126.70630859 167.15912109 -126.89672852 166.4855957 C-136.15117338 133.01757369 -129.75379048 96.49979074 -112.83276367 66.58764648 C-96.51561883 39.01460293 -70.89594897 17.28782907 -40.33666992 7.46655273 C-39.57225586 7.19327148 -38.8078418 6.91999023 -38.02026367 6.63842773 C-25.38810325 2.13207829 -13.39246269 -0.18987006 0 0 Z " fill="#FBD703" transform="translate(536.336669921875,220.533447265625)"/>
<path d="M0 0 C1.63787476 0.01123901 1.63787476 0.01123901 3.30883789 0.02270508 C18.46768439 0.2231804 32.31259016 2.7572396 46.75 7.25 C47.73484375 7.54648438 48.7196875 7.84296875 49.734375 8.1484375 C69.90991063 14.81247806 87.24713323 28.00339648 101.75 43.25 C102.40355469 43.9203125 103.05710937 44.590625 103.73046875 45.28125 C110.10340522 52.03809831 115.00079455 59.31836129 119.75 67.25 C120.306875 68.16652344 120.86375 69.08304687 121.4375 70.02734375 C132.46528447 89.12493925 136.98442954 110.89473386 137.125 132.75 C137.12956207 133.43274994 137.13412415 134.11549988 137.13882446 134.81893921 C137.16963238 147.76299024 135.31216197 159.80413094 131.75 172.25 C131.51788818 173.09868652 131.28577637 173.94737305 131.04663086 174.82177734 C129.50290828 180.27332336 127.55138278 185.22821118 124.9375 190.25 C124.58421631 190.93932617 124.23093262 191.62865234 123.86694336 192.33886719 C114.17731769 211.06409622 101.62097153 227.44373279 84.75 240.25 C83.99589844 240.83136719 83.24179688 241.41273438 82.46484375 242.01171875 C53.95731047 262.98896022 18.14810262 271.25347702 -16.92626953 266.78125 C-41.61888572 262.68322608 -64.30697817 252.75175148 -83.25 236.25 C-84.15363281 235.47914063 -85.05726562 234.70828125 -85.98828125 233.9140625 C-110.53656309 212.38763001 -128.19193997 178.92681051 -130.6015625 146.11865234 C-131.60194982 128.43902955 -130.66373794 111.21087571 -125.25 94.25 C-125.03069824 93.53295898 -124.81139648 92.81591797 -124.58544922 92.07714844 C-115.3771075 62.6242502 -94.22954798 36.6271131 -68.25 20.25 C-67.14398437 19.54488281 -66.03796875 18.83976562 -64.8984375 18.11328125 C-45.32851794 6.30384703 -22.87377011 -0.20945692 0 0 Z " fill="#134A97" transform="translate(1349.25,220.75)"/>
<path d="M0 0 C2.26817829 0.00103911 4.53635839 -0.00000367 6.80453491 -0.00302124 C11.54021365 -0.00284256 16.27520599 0.01785958 21.01074219 0.05419922 C27.06087731 0.09962387 33.11001374 0.10064435 39.1602726 0.08716393 C43.83766455 0.0804615 48.51483147 0.09378639 53.19218063 0.11342239 C55.4223551 0.12108341 57.65255468 0.12344078 59.88274002 0.1202507 C63.00515186 0.11950363 66.12631258 0.14490433 69.24853516 0.17724609 C70.15685593 0.17229126 71.0651767 0.16733643 72.00102234 0.16223145 C79.73416946 0.28919296 86.56679749 2.16945696 92.5859375 7.1640625 C99.30729225 15.51483658 99.92793273 24.16420952 100.13500977 34.60449219 C100.16295624 35.65472061 100.19090271 36.70494904 100.21969604 37.78700256 C100.30962597 41.24066137 100.38720116 44.69448252 100.46484375 48.1484375 C100.52601442 50.5739348 100.58803552 52.99941079 100.65086365 55.42486572 C100.81424995 61.80836177 100.96748899 68.19205949 101.11816406 74.5758667 C101.36010317 84.74829209 101.61824375 94.92032161 101.87489128 105.09238434 C101.96240969 108.61302172 102.04611043 112.13373197 102.12904358 115.65447998 C102.41394281 127.47134652 102.80604854 139.27224901 103.417099 151.07696533 C103.66733503 155.93765831 103.85188935 160.80002991 104.0234375 165.6640625 C104.06216445 166.3875098 104.1008914 167.11095711 104.14079189 167.85632706 C104.19850641 171.72786241 103.68248586 174.17481706 101.3125 177.16796875 C95.96039209 182.30818969 88.85898067 180.89804663 81.88378906 180.78240967 C76.31752593 180.64334428 70.76379335 180.29966133 65.20898438 179.92700195 C63.1214307 179.78725458 61.03346977 179.65577905 58.9453125 179.52539062 C47.99892028 178.8260173 47.99892028 178.8260173 43.35546875 178.18359375 C39.48092728 177.70591055 35.68065677 177.54747189 31.78173828 177.43603516 C21.56591376 177.14309008 11.43501476 176.44453712 1.2734375 175.3515625 C0.16379639 175.2376416 -0.94584473 175.1237207 -2.08911133 175.00634766 C-11.20782869 173.97174653 -19.46174482 172.16299578 -27.4765625 167.5390625 C-28.40726563 167.00925781 -29.33796875 166.47945312 -30.296875 165.93359375 C-30.97492188 165.53527344 -31.65296875 165.13695312 -32.3515625 164.7265625 C-25.99557927 151.20127117 -14.53326375 143.77628187 -1.68530273 137.13598633 C12.85246563 129.6075608 25.03402792 122.10046206 33.6484375 107.7265625 C34.04417969 107.13488281 34.43992187 106.54320312 34.84765625 105.93359375 C41.29913077 95.83667638 42.32982248 83.02339673 39.9921875 71.48828125 C35.5602824 56.75983802 26.43629353 46.84439419 13.3984375 39.1484375 C6.55075727 35.60787556 -0.5346449 32.86630925 -7.7890625 30.2890625 C-27.89721666 22.9471845 -27.89721666 22.9471845 -32.3515625 14.7265625 C-32.9496875 13.6334375 -33.5478125 12.5403125 -34.1640625 11.4140625 C-35.3515625 8.7265625 -35.3515625 8.7265625 -35.3515625 6.7265625 C-24.40473559 -1.08259994 -12.8887794 -0.11700816 0 0 Z " fill="#DCDDDE" transform="translate(1344.3515625,1398.2734375)"/>
<path d="M0 0 C1.02891357 0.0107959 2.05782715 0.0215918 3.11791992 0.03271484 C5.16513698 0.06001321 7.21228068 0.09368721 9.25927734 0.13427734 C11.48115874 0.17742451 13.70350846 0.19597517 15.92578125 0.20703125 C33.44838776 0.75271796 51.68919826 5.97770156 68 12.1875 C69.48693359 12.75210937 69.48693359 12.75210937 71.00390625 13.328125 C101.96707689 25.69690155 101.96707689 25.69690155 108 35.1875 C108.67414746 39.16497 108.93124967 41.61415308 106.85595703 45.12036133 C101.67019167 51.68852213 95.89914402 57.59308437 89.96777344 63.48046875 C88.26003102 65.17753171 86.56319864 66.88497213 84.8671875 68.59375 C78.23188161 75.23785483 71.39204376 81.37936239 64 87.1875 C62.58640989 88.33621933 61.1735932 89.48589138 59.76171875 90.63671875 C48.39476464 99.73608573 36.50118559 107.73054382 24 115.1875 C22.96343262 115.80705566 21.92686523 116.42661133 20.85888672 117.06494141 C17.69514272 118.9317768 14.51012129 120.75440138 11.3125 122.5625 C9.86206299 123.41146851 9.86206299 123.41146851 8.38232422 124.27758789 C1.73385156 127.93659815 -3.44161039 128.93167109 -11 128.1875 C-10.25737205 121.30313824 -8.40500225 114.74118613 -6.625 108.0625 C-5.39971888 103.44173646 -4.18915352 98.81769897 -3 94.1875 C-2.70810791 93.06263184 -2.41621582 91.93776367 -2.11547852 90.77880859 C-0.46498595 84.1053121 0.46642568 77.93462572 0.3125 71.0625 C0.29904541 70.19850586 0.28559082 69.33451172 0.27172852 68.44433594 C-0.14728862 50.57300254 -6.71282822 36.56832983 -17 22.1875 C-23.08129191 13.2197978 -23.08129191 13.2197978 -22.875 8.0625 C-22 5.1875 -22 5.1875 -20.375 3.4375 C-13.720773 -0.06472474 -7.36441786 -0.10044313 0 0 Z " fill="#DCDDDE" transform="translate(831,1403.8125)"/>
<path d="M0 0 C9.3852249 7.62661679 16.74919395 18.87037462 18.07958984 31.02978516 C19.26936091 48.63659875 16.64502419 61.77392042 4.79296875 75.41015625 C-7.52635504 87.81300088 -20.42456897 92.71181241 -37.86376953 92.79516602 C-51.86785695 92.4990796 -63.45103311 85.59244467 -72.95703125 75.72265625 C-81.62383201 65.64711755 -86.81101742 53.01078946 -86.70703125 39.72265625 C-86.70058594 38.8519751 -86.69414063 37.98129395 -86.6875 37.08422852 C-86.30120079 23.28800965 -80.72831597 12.39381503 -71.30078125 2.38671875 C-51.17757148 -16.49940845 -21.80650699 -15.70840415 0 0 Z " fill="#4C4C4B" transform="translate(1396.20703125,1686.58984375)"/>
<path d="M0 0 C-3.53411321 2.12046792 -6.94393835 2.53199289 -11 3 C-11 3.33 -11 3.66 -11 4 C-14.3 3.67 -17.6 3.34 -21 3 C-14.41369486 -0.29315257 -7.27038992 -0.15805195 0 0 Z " fill="#587A97" transform="translate(983,934)"/>
<path d="M0 0 C0.66 0.33 1.32 0.66 2 1 C-1.3 4.3 -4.6 7.6 -8 11 C-8.66 10.67 -9.32 10.34 -10 10 C-3.84965831 2.51708428 -3.84965831 2.51708428 0 0 Z " fill="#C4C5C5" transform="translate(1327,1544)"/>
<path d="M0 0 C0.66 0.33 1.32 0.66 2 1 C1.21625 1.763125 0.4325 2.52625 -0.375 3.3125 C-3.07257717 5.90891805 -3.07257717 5.90891805 -5 9 C-4.50769231 3.46153846 -4.50769231 3.46153846 -1.9375 1.125 C-1.298125 0.75375 -0.65875 0.3825 0 0 Z " fill="#B6B7B7" transform="translate(813,1406)"/>
<path d="M0 0 C0.66 0.33 1.32 0.66 2 1 C-0.31 3.31 -2.62 5.62 -5 8 C-5 5 -5 5 -2.5 2.3125 C-1.675 1.549375 -0.85 0.78625 0 0 Z " fill="#C2C3C3" transform="translate(1063,1402)"/>
<path d="" fill="#DEDFE0" transform="translate(0,0)"/>
</svg>
